<svg width="16" height="16" viewBox="0 0 16 16" fill="none" xmlns="http://www.w3.org/2000/svg">
<g opacity="0.7" clip-path="url(#clip0_701_699)">
<path fill-rule="evenodd" clip-rule="evenodd" d="M12.6379 9.71221C12.2436 12.4379 9.60845 14.4518 6.65915 13.8348C4.78638 13.4427 3.26417 11.9347 2.8706 10.0698C2.19839 6.88119 4.40437 4.06244 7.71169 4.06244V5.70987L11.8458 3.23873L7.71169 0.767578V2.41501C3.57754 2.41501 0.411611 6.10774 1.23431 10.3268C1.73536 12.8959 3.81732 14.9666 6.3962 15.4658C10.3046 16.2219 13.7641 13.5483 14.2751 9.93222C14.3445 9.44129 13.9468 9.00474 13.4499 9.00474C13.039 9.00474 12.6967 9.30695 12.6379 9.71221Z" fill="white"/>
</g>
<defs>
<clipPath id="clip0_701_699">
<rect width="14.8269" height="14.8269" fill="white" transform="translate(0.279297 0.767578)"/>
</clipPath>
</defs>
</svg>
