<svg width="20" height="21" viewBox="0 0 20 21" fill="none" xmlns="http://www.w3.org/2000/svg">
<path d="M19.069 12.7858C17.7922 17.9085 12.6037 21.0367 7.47156 19.7591C2.3488 18.4784 -0.774301 13.2899 0.502478 8.16719C1.77926 3.04445 6.9646 -0.0836793 12.0842 1.19388C17.2195 2.45577 20.3426 7.65993 19.069 12.7858Z" fill="#F7931A"/>
<path d="M14.3164 9.2205C14.4884 7.94473 13.5191 7.2787 12.1901 6.82842L12.6029 5.10237L11.5523 4.8491L11.152 6.53762C10.8737 6.47196 10.5923 6.40629 10.314 6.35001L10.7143 4.66148L9.65111 4.4082L9.23836 6.13425C9.01322 6.08109 8.78496 6.04044 8.55982 5.98729L7.11207 5.6402L6.84628 6.7565C6.84628 6.7565 7.63113 6.92848 7.60299 6.94412C8.02825 7.05043 8.10955 7.32873 8.09391 7.54136L7.62801 9.50818C7.65615 9.52068 7.69367 9.52068 7.73432 9.54883C7.69367 9.53632 7.66866 9.53632 7.62801 9.52381L6.99012 12.2755C6.93696 12.4068 6.80251 12.5944 6.51171 12.5288C6.52421 12.5413 5.73936 12.3411 5.73936 12.3411L5.24219 13.5513L6.61177 13.8702C6.86505 13.9359 7.11832 13.989 7.35597 14.0578L6.94322 15.7995L7.99385 16.0528L8.4066 14.3267C8.70053 14.4049 8.97883 14.4737 9.24461 14.5394L8.83186 16.2529L9.8825 16.5062L10.2952 14.7645C12.0901 15.0834 13.4315 14.9365 13.9756 13.3011C14.4134 11.9972 13.935 11.253 12.9781 10.7621C13.6785 10.6026 14.1851 10.1492 14.3164 9.2205ZM11.9525 12.6069C11.6461 13.9109 9.44161 13.2323 8.73493 13.0603L9.27901 10.7464C9.99819 10.9215 12.2714 11.2405 11.9525 12.6069ZM12.2433 9.2205C11.965 10.4025 10.1295 9.83337 9.53229 9.68641L10.0388 7.58826C10.6236 7.7321 12.5372 7.98538 12.2433 9.2205Z" fill="white"/>
</svg>
