<svg width="12" height="11" viewBox="0 0 12 11" fill="none" xmlns="http://www.w3.org/2000/svg">
<path opacity="0.7" d="M1.31433 0.548828H10.5811C10.8269 0.548828 11.0626 0.652093 11.2364 0.835905C11.4102 1.01972 11.5078 1.26902 11.5078 1.52897V2.39934C11.2542 2.1559 10.9236 2.02164 10.5811 2.02296V1.52897H1.31433V2.02296C0.97184 2.02164 0.641276 2.1559 0.38765 2.39934V1.52897C0.38765 1.26902 0.485281 1.01972 0.659068 0.835905C0.832854 0.652093 1.06856 0.548828 1.31433 0.548828ZM1.31433 2.50911H10.5811C10.8269 2.50911 11.0626 2.61238 11.2364 2.79619C11.4102 2.98 11.5078 3.22931 11.5078 3.48926V4.35962C11.2542 4.11618 10.9236 3.98192 10.5811 3.98325V3.48926H1.31433V3.98325C0.97184 3.98192 0.641276 4.11618 0.38765 4.35962V3.48926C0.38765 3.22931 0.485281 2.98 0.659068 2.79619C0.832854 2.61238 1.06856 2.50911 1.31433 2.50911ZM1.31433 4.4694H4.09437C4.11178 4.97205 4.31639 5.44703 4.66358 5.79076C5.01078 6.13448 5.47238 6.31905 5.94773 6.30423C6.42308 6.31905 6.88468 6.13448 7.23188 5.79076C7.57907 5.44703 7.78368 4.97205 7.80109 4.4694H10.5811C10.8269 4.4694 11.0626 4.57266 11.2364 4.75648C11.4102 4.94029 11.5078 5.18959 11.5078 5.44954V9.76217C11.5078 10.0221 11.4102 10.2714 11.2364 10.4552C11.0626 10.639 10.8269 10.7423 10.5811 10.7423H1.31433C1.06856 10.7423 0.832854 10.639 0.659068 10.4552C0.485281 10.2714 0.38765 10.0221 0.38765 9.76217V5.44954C0.38765 5.18959 0.485281 4.94029 0.659068 4.75648C0.832854 4.57266 1.06856 4.4694 1.31433 4.4694ZM1.31433 9.76217H10.5811V5.44954H8.55726C8.34627 5.99678 7.98465 6.46433 7.51933 6.7915C7.05401 7.11868 6.50646 7.2904 5.94773 7.28437C5.38878 7.29147 4.84078 7.12019 4.37527 6.79287C3.90975 6.46556 3.54834 5.99741 3.3382 5.44954H1.31433V9.76217Z" fill="white"/>
</svg>
