<svg width="40" height="40" viewBox="0 0 40 40" fill="none" xmlns="http://www.w3.org/2000/svg">
<path d="M20.2094 4.42276C21.2495 4.42276 22.0927 3.5796 22.0927 2.5395C22.0927 1.49941 21.2495 0.65625 20.2094 0.65625C19.1693 0.65625 18.3262 1.49941 18.3262 2.5395C18.3262 3.5796 19.1693 4.42276 20.2094 4.42276Z" fill="#0054FF" fill-opacity="0.6"/>
<path d="M20.2094 39.5771C21.2495 39.5771 22.0927 38.7339 22.0927 37.6938C22.0927 36.6537 21.2495 35.8105 20.2094 35.8105C19.1693 35.8105 18.3262 36.6537 18.3262 37.6938C18.3262 38.7339 19.1693 39.5771 20.2094 39.5771Z" fill="#0054FF" fill-opacity="0.9"/>
<path d="M11.4223 6.74502C12.4624 6.74502 13.3056 5.90186 13.3056 4.86177C13.3056 3.82168 12.4624 2.97852 11.4223 2.97852C10.3822 2.97852 9.53906 3.82168 9.53906 4.86177C9.53906 5.90186 10.3822 6.74502 11.4223 6.74502Z" fill="#0054FF" fill-opacity="0.3"/>
<path d="M30.6309 34.4302C31.1331 35.3091 30.8193 36.439 29.9404 37.004C29.0616 37.5062 27.9316 37.1923 27.3666 36.3135C26.8644 35.4346 27.1783 34.3047 28.0572 33.7397C28.936 33.2375 30.1287 33.5513 30.6309 34.4302Z" fill="#0054FF"/>
<path d="M5.89744 9.69488C6.77629 10.1971 7.09017 11.327 6.58797 12.2687C6.08576 13.1475 4.95581 13.4614 4.01419 12.9592C3.13533 12.457 2.82146 11.327 3.32366 10.3854C3.82586 9.44378 5.01859 9.19268 5.89744 9.69488Z" fill="#0054FF" fill-opacity="0.4"/>
<path d="M36.4072 27.2729C37.2861 27.7751 37.5999 28.905 37.0977 29.8467C36.5955 30.7255 35.4656 31.0394 34.5239 30.5372C33.6451 30.035 33.3312 28.905 33.8334 27.9634C34.3356 27.0846 35.4656 26.7707 36.4072 27.2729Z" fill="#0054FF"/>
<path d="M2.63325 21.9989C3.67335 21.9989 4.51651 21.1558 4.51651 20.1157C4.51651 19.0756 3.67335 18.2324 2.63325 18.2324C1.59316 18.2324 0.75 19.0756 0.75 20.1157C0.75 21.1558 1.59316 21.9989 2.63325 21.9989Z" fill="#0054FF" fill-opacity="0.6"/>
<path opacity="0.2" d="M37.7876 21.9989C38.8276 21.9989 39.6708 21.1558 39.6708 20.1157C39.6708 19.0756 38.8276 18.2324 37.7876 18.2324C36.7475 18.2324 35.9043 19.0756 35.9043 20.1157C35.9043 21.1558 36.7475 21.9989 37.7876 21.9989Z" fill="#0054FF"/>
<path d="M4.01473 27.2729C4.89358 26.7707 6.02353 27.0846 6.58851 27.9634C7.09071 28.8423 6.77683 29.9722 5.89798 30.5372C5.01913 31.0394 3.88918 30.7255 3.3242 29.8467C2.75922 28.9678 3.13587 27.8379 4.01473 27.2729Z" fill="#0054FF" fill-opacity="0.7"/>
<path d="M34.5239 9.69671C35.4028 9.1945 36.5328 9.50838 37.0977 10.3872C37.5999 11.2661 37.2861 12.396 36.4072 12.961C35.5284 13.4632 34.3984 13.1493 33.8334 12.2705C33.3312 11.3916 33.6451 10.1989 34.5239 9.69671Z" fill="#0054FF" fill-opacity="0.8"/>
<path d="M9.79046 34.4302C10.2927 33.5513 11.4226 33.2375 12.3642 33.7397C13.2431 34.2419 13.557 35.3718 13.0548 36.3135C12.5526 37.1923 11.4226 37.5062 10.481 37.004C9.60213 36.439 9.28825 35.3091 9.79046 34.4302Z" fill="#0054FF" fill-opacity="0.8"/>
<path d="M27.3666 3.92044C27.8688 3.04158 28.9988 2.72771 29.9404 3.22991C30.8193 3.73211 31.1331 4.86206 30.6309 5.80369C30.1287 6.68254 28.9988 6.99642 28.0572 6.49422C27.1783 5.99201 26.8644 4.86206 27.3666 3.92044Z" fill="#0054FF" fill-opacity="0.7"/>
<circle cx="20.2107" cy="20.117" r="10.3025" fill="#0054FF"/>
<path fill-rule="evenodd" clip-rule="evenodd" d="M16.7758 15.5371H14.4863V24.6949H14.4864V24.5529H16.5678V22.2635C16.5678 20.252 18.1985 18.6213 20.21 18.6213C22.2216 18.6213 23.8523 20.252 23.8523 22.2635V24.5529H25.9334V24.6949H25.9336V15.5371H23.6441V17.9578C22.7889 16.9065 21.5668 16.2486 20.2099 16.2486C18.853 16.2486 17.631 16.9064 16.7758 17.9576V15.5371Z" fill="white"/>
</svg>
