<svg width="15" height="15" viewBox="0 0 15 15" fill="none" xmlns="http://www.w3.org/2000/svg">
<g clip-path="url(#clip0_701_927)">
<path d="M7.58812 0C3.68967 0 0.529297 3.31839 0.529297 7.41176C0.529297 10.8876 2.80845 13.8043 5.88299 14.6053V9.6768H4.42746V7.41176H5.88299V6.43578C5.88299 3.91312 6.97033 2.74384 9.32911 2.74384C9.77636 2.74384 10.548 2.83604 10.8637 2.92794V4.981C10.6971 4.96262 10.4077 4.95343 10.0483 4.95343C8.8909 4.95343 8.44365 5.41385 8.44365 6.6107V7.41176H10.7493L10.3532 9.6768H8.44365V14.7693C11.9389 14.3261 14.6472 11.2013 14.6472 7.41176C14.6469 3.31839 11.4866 0 7.58812 0Z" fill="white"/>
</g>
<defs>
<clipPath id="clip0_701_927">
<rect width="14.1176" height="14.8235" fill="white" transform="translate(0.529297)"/>
</clipPath>
</defs>
</svg>
