<svg width="15" height="15" viewBox="0 0 15 15" fill="none" xmlns="http://www.w3.org/2000/svg">
<g clip-path="url(#clip0_701_929)">
<path d="M7.58755 1.3347C9.56788 1.3347 9.80239 1.34338 10.5812 1.37812C11.305 1.40997 11.6959 1.53157 11.9564 1.6329C12.301 1.76608 12.55 1.92822 12.8076 2.18589C13.0682 2.44646 13.2274 2.69256 13.3606 3.03709C13.4619 3.29766 13.5835 3.69141 13.6154 4.41232C13.6501 5.19403 13.6588 5.42854 13.6588 7.40597C13.6588 9.38631 13.6501 9.62082 13.6154 10.3996C13.5835 11.1234 13.4619 11.5143 13.3606 11.7749C13.2274 12.1194 13.0653 12.3684 12.8076 12.6261C12.5471 12.8866 12.301 13.0459 11.9564 13.179C11.6959 13.2804 11.3021 13.402 10.5812 13.4338C9.79949 13.4686 9.56498 13.4773 7.58755 13.4773C5.60722 13.4773 5.3727 13.4686 4.59389 13.4338C3.87008 13.402 3.47923 13.2804 3.21866 13.179C2.87413 13.0459 2.62514 12.8837 2.36746 12.6261C2.10689 12.3655 1.94766 12.1194 1.81448 11.7749C1.71314 11.5143 1.59154 11.1205 1.5597 10.3996C1.52495 9.61792 1.51627 9.38341 1.51627 7.40597C1.51627 5.42564 1.52495 5.19113 1.5597 4.41232C1.59154 3.68851 1.71314 3.29766 1.81448 3.03709C1.94766 2.69256 2.10979 2.44357 2.36746 2.18589C2.62803 1.92532 2.87413 1.76608 3.21866 1.6329C3.47923 1.53157 3.87298 1.40997 4.59389 1.37812C5.3727 1.34338 5.60722 1.3347 7.58755 1.3347ZM7.58755 0C5.57537 0 5.32348 0.00868566 4.53309 0.0434283C3.74559 0.078171 3.20418 0.205561 2.73516 0.38796C2.24586 0.579044 1.83185 0.830928 1.42073 1.24494C1.00671 1.65607 0.754825 2.07008 0.563741 2.55648C0.381342 3.0284 0.253952 3.56691 0.21921 4.35441C0.184467 5.1477 0.175781 5.39959 0.175781 7.41176C0.175781 9.42394 0.184467 9.67583 0.21921 10.4662C0.253952 11.2537 0.381342 11.7951 0.563741 12.2642C0.754825 12.7534 1.00671 13.1675 1.42073 13.5786C1.83185 13.9897 2.24586 14.2445 2.73226 14.4327C3.20418 14.6151 3.74269 14.7425 4.53019 14.7772C5.32059 14.8119 5.57247 14.8206 7.58465 14.8206C9.59683 14.8206 9.84871 14.8119 10.6391 14.7772C11.4266 14.7425 11.968 14.6151 12.437 14.4327C12.9234 14.2445 13.3375 13.9897 13.7486 13.5786C14.1597 13.1675 14.4145 12.7534 14.6027 12.2671C14.7851 11.7951 14.9125 11.2566 14.9472 10.4691C14.9819 9.67872 14.9906 9.42684 14.9906 7.41466C14.9906 5.40248 14.9819 5.1506 14.9472 4.3602C14.9125 3.5727 14.7851 3.0313 14.6027 2.56227C14.4203 2.07008 14.1684 1.65607 13.7544 1.24494C13.3432 0.833824 12.9292 0.579044 12.4428 0.390855C11.9709 0.208456 11.4324 0.0810662 10.6449 0.0463235C9.85161 0.00868567 9.59972 0 7.58755 0Z" fill="white"/>
<path d="M7.58846 3.60547C5.48654 3.60547 3.78125 5.31075 3.78125 7.41268C3.78125 9.51461 5.48654 11.2199 7.58846 11.2199C9.69039 11.2199 11.3957 9.51461 11.3957 7.41268C11.3957 5.31075 9.69039 3.60547 7.58846 3.60547ZM7.58846 9.88231C6.22482 9.88231 5.11884 8.77633 5.11884 7.41268C5.11884 6.04904 6.22482 4.94306 7.58846 4.94306C8.95211 4.94306 10.0581 6.04904 10.0581 7.41268C10.0581 8.77633 8.95211 9.88231 7.58846 9.88231Z" fill="white"/>
<path d="M12.4339 3.45329C12.4339 3.94548 12.0344 4.34212 11.5451 4.34212C11.0529 4.34212 10.6562 3.94258 10.6562 3.45329C10.6562 2.9611 11.0558 2.56445 11.5451 2.56445C12.0344 2.56445 12.4339 2.96399 12.4339 3.45329Z" fill="white"/>
</g>
<defs>
<clipPath id="clip0_701_929">
<rect width="14.8235" height="14.8235" fill="white" transform="translate(0.175781)"/>
</clipPath>
</defs>
</svg>
