<svg width="15" height="15" viewBox="0 0 15 15" fill="none" xmlns="http://www.w3.org/2000/svg">
<g clip-path="url(#clip0_701_930)">
<path fill-rule="evenodd" clip-rule="evenodd" d="M14.8235 7.41176C14.8235 11.5052 11.5052 14.8235 7.41176 14.8235C3.31836 14.8235 0 11.5052 0 7.41176C0 3.31836 3.31836 0 7.41176 0C11.5052 0 14.8235 3.31836 14.8235 7.41176ZM7.67737 5.47169C6.95646 5.77154 5.51567 6.39215 3.35499 7.33352C3.00413 7.47305 2.82034 7.60954 2.8036 7.74301C2.77533 7.96857 3.05779 8.05739 3.44244 8.17834C3.49476 8.19479 3.54897 8.21184 3.60455 8.22991C3.98298 8.35292 4.49204 8.49683 4.75668 8.50255C4.99673 8.50773 5.26466 8.40877 5.56045 8.20565C7.57924 6.84291 8.62135 6.15412 8.68678 6.13927C8.73294 6.12879 8.7969 6.11562 8.84024 6.15414C8.88357 6.19266 8.87931 6.26561 8.87472 6.28518C8.84674 6.40447 7.73796 7.43529 7.16416 7.96875C6.98528 8.13505 6.8584 8.25301 6.83246 8.27995C6.77436 8.3403 6.71514 8.39739 6.65822 8.45225C6.30665 8.79117 6.043 9.04533 6.67282 9.46037C6.97548 9.65982 7.21768 9.82475 7.4593 9.9893C7.72317 10.169 7.98636 10.3482 8.32688 10.5714C8.41364 10.6283 8.49649 10.6874 8.5772 10.7449C8.88428 10.9638 9.16017 11.1605 9.50101 11.1292C9.69906 11.1109 9.90364 10.9247 10.0075 10.3693C10.2531 9.05665 10.7357 6.21258 10.8473 5.0406C10.857 4.93792 10.8447 4.80651 10.8349 4.74883C10.825 4.69114 10.8044 4.60895 10.7294 4.54811C10.6406 4.47605 10.5035 4.46085 10.4422 4.46193C10.1634 4.46685 9.73569 4.61556 7.67737 5.47169Z" fill="white"/>
</g>
<defs>
<clipPath id="clip0_701_930">
<rect width="14.8235" height="14.8235" fill="white"/>
</clipPath>
</defs>
</svg>
