<svg width="20" height="13" viewBox="0 0 20 13" fill="none" xmlns="http://www.w3.org/2000/svg">
<path d="M1 5.71575C0.566873 5.71575 0.215753 6.06687 0.215753 6.5C0.215753 6.93313 0.566873 7.28425 1 7.28425V5.71575ZM18.808 7.05455C19.1142 6.74828 19.1142 6.25172 18.808 5.94545L13.8171 0.954539C13.5108 0.648272 13.0142 0.648272 12.708 0.954539C12.4017 1.26081 12.4017 1.75736 12.708 2.06363L17.1443 6.5L12.708 10.9364C12.4017 11.2426 12.4017 11.7392 12.708 12.0455C13.0142 12.3517 13.5108 12.3517 13.8171 12.0455L18.808 7.05455ZM1 7.28425H18.2534V5.71575H1V7.28425Z" fill="white"/>
</svg>
