<svg width="254" height="34" viewBox="0 0 254 34" fill="none" xmlns="http://www.w3.org/2000/svg">
<g clip-path="url(#clip0_708_1023)">
<path d="M36.498 34H60.8657V27.6526H43.8622V19.8675H57.9599V13.5148H43.8622V6.34738H60.9681V0H36.498V34Z" fill="#056F99"/>
<path d="M90.2034 21.4011L74.2404 0H63.248L66.6714 4.30258V34.1065H74.0302V11.7789L90.5161 34H97.5676V0H90.2034V21.4011Z" fill="#056F99"/>
<path d="M25.4027 16.5074C28.6373 15.8951 31.3329 12.9237 31.3329 8.72764C31.3113 4.19608 27.9958 0 21.3594 0H0L3.3155 4.19608V34.016H22.1034C28.7452 34.016 32.1631 29.9211 32.1631 24.7984C32.0391 20.5864 29.1117 17.0027 25.4027 16.5074ZM10.6797 6.38998H19.9092C22.3999 6.38998 23.9525 7.82772 23.9525 9.97369C23.9525 12.1197 22.3999 13.5574 19.9092 13.5574H10.6797V6.38998ZM20.2165 27.6899H10.6797V19.8675H20.2165C23.0198 19.8675 24.5725 21.6088 24.5725 23.7601C24.5725 26.2149 22.912 27.6526 20.2165 27.6526V27.6899Z" fill="#056F99"/>
<path d="M205.298 21.4011H209.136V25.4002C207.151 27.0237 204.662 27.9259 202.085 27.9561C195.966 27.9561 191.615 23.35 191.615 17.1038C191.615 10.8576 195.966 6.2462 202.085 6.2462C203.657 6.25906 205.201 6.65928 206.578 7.41059C207.954 8.1619 209.119 9.24054 209.966 10.5488L215.772 7.3538C213.287 3.48254 208.926 0 201.982 0C192.235 0 184.148 6.65623 184.148 17.0027C184.148 27.3491 192.133 34 201.982 34C204.642 34.0436 207.28 33.5168 209.714 32.4559C212.148 31.395 214.32 29.8253 216.08 27.855V15.2614H200.322L205.298 21.4011Z" fill="#056F99"/>
<path d="M172.121 21.4011L156.153 0H145.16L148.583 4.30258V34.1065H155.948V11.7789L172.434 34H179.48V0H172.121V21.4011Z" fill="#056F99"/>
<path d="M240.441 0H226.241L229.659 4.30258L229.039 5.93735L218.047 34.1065H226.344L228.5 28.3662H243.353L245.509 34.1065H253.8L240.441 0ZM230.392 21.9176L235.783 7.2686L241.175 21.9176H230.392Z" fill="#056F99"/>
<path d="M140.911 0H133.547V34.1065H140.911V0Z" fill="#056F99"/>
<path d="M127.639 5.83618V0H101.713V6.34738H117.994L101.713 28.1638V34H127.951V27.6526H111.255L127.639 5.83618Z" fill="#056F99"/>
</g>
<defs>
<clipPath id="clip0_708_1023">
<rect width="254" height="34" fill="white"/>
</clipPath>
</defs>
</svg>
