<svg width="239" height="48" viewBox="0 0 239 48" fill="none" xmlns="http://www.w3.org/2000/svg">
<path fill-rule="evenodd" clip-rule="evenodd" d="M6.3 20.5H12.3C17.4 20.5 19.8 21.8 19.8 25.5C19.8 30.1 15.3 30.7 12.1 30.7H6.3V20.5ZM0 36.1H12.7C19.4 36.1 26 33.7 26 26C26 21.5 22.8 18 18.4 17.5V17.4C22 16.3 24.5 13.7 24.5 9.7C24.5 3.3 19 0.8 13.7 0.8H0V36.1ZM6.3 6.2H11.5C16.2 6.2 18.3 7.7 18.3 10.7C18.3 13.3 16.2 15.1 12 15.1H6.3V6.2ZM30.1 36.1H36.1V0H30.1V36.1ZM40.1 24.1C40.1 31.6 45.9 36.6 53.1 36.6C60.3 36.6 66.1 31.6 66.1 24.1C66.1 16.6 60.3 11.6 53.1 11.6C45.8 11.6 40.1 16.6 40.1 24.1ZM46 24.1C46 20.4 48.6 16.9 53 16.9C57.4 16.9 60 20.3 60 24.1C60 27.9 57.4 31.3 53 31.3C48.7 31.3 46 27.9 46 24.1ZM68.7 24.1C68.7 31.6 74.5 36.6 81.7 36.6C88.9 36.6 94.7 31.6 94.7 24.1C94.7 16.6 88.9 11.6 81.7 11.6C74.5 11.6 68.7 16.6 68.7 24.1ZM74.7 24.1C74.7 20.4 77.3 16.9 81.7 16.9C86.1 16.9 88.7 20.3 88.7 24.1C88.7 27.9 86.1 31.3 81.7 31.3C77.3 31.3 74.7 27.9 74.7 24.1ZM98.4 12.2H104.1V15.9H104.2C105.2 13.7 107.5 11.6 111.5 11.6C115.2 11.6 117.7 13 119 16C120.7 13 123.3 11.6 126.9 11.6C133.3 11.6 135.5 16.1 135.5 21.8V36H129.5V22.5C129.5 19.5 128.6 16.9 125.1 16.9C121.4 16.9 120 20 120 23.1V36H114V21.8C114 18.9 112.8 16.9 109.9 16.9C106 16.9 104.4 19.8 104.4 23V36H98.4V12.2ZM140.2 36.1H145.9V32.5H146C147.7 35.4 150.9 36.7 154.2 36.7C161.6 36.7 166 31.2 166 24.2C166 17.1 161.3 11.7 154.5 11.7C150 11.7 147.6 13.8 146.4 15.3H146.3V0H140.3L140.2 36.1ZM160 24.1C160 27.8 157.4 31.3 153 31.3C148.6 31.3 146 27.9 146 24.1C146 20.4 148.6 16.9 153 16.9C157.4 17 160 20.4 160 24.1ZM192.9 26.2V24.6C192.9 16.3 188.4 11.6 181.7 11.6C174.5 11.6 168.7 16.6 168.7 24.1C168.7 31.6 174.5 36.6 181.7 36.6C185.5 36.6 189 35.3 191.8 31.8L187.5 28.6C186 30.4 184.1 31.8 181.1 31.8C177.8 31.8 175.1 29.7 174.7 26.1C174.7 26.2 192.9 26.2 192.9 26.2ZM174.7 21.7C175.1 18.3 177.3 16 180.9 16C184.6 16 186.9 18.2 187 21.7H174.7ZM196.8 12.2H202.8V16H202.9C204.2 13.3 206.8 11.6 210 11.6C210.7 11.6 211.4 11.8 212.1 11.9V17.7C211.1 17.5 210.2 17.3 209.2 17.3C203.6 17.3 202.8 22 202.8 23.3V36.1H196.8V12.2ZM232.4 12.2V15.8H232.3C230.6 12.9 227.4 11.6 224.1 11.6C216.7 11.6 212.3 17.1 212.3 24.1C212.3 30.9 217 36.3 224.2 36.3C227.2 36.3 230.3 35.2 232 32.8H232.1V34.5C232.1 39.2 230.3 42.5 224.5 42.5C221.2 42.5 218.7 41.3 216.3 39.1L212.7 44C216.1 47 220.1 47.9 224.5 47.9C233.8 47.9 238 42.4 238 33.8V12.2H232.4ZM225.4 17C229.7 17 232.5 19.9 232.5 24C232.5 28 229.8 31 225.4 31C221.4 31 218.4 27.9 218.4 24.1C218.3 19.8 221.2 17 225.4 17Z" fill="#FEFEFE"/>
</svg>
