<svg width="300" height="43" viewBox="0 0 300 43" fill="none" xmlns="http://www.w3.org/2000/svg">
<path d="M72.711 18.0302L72.2265 20.5314H72.142C71.4942 19.078 69.6408 17.1429 65.6862 17.1429C59.2304 17.1429 52.6929 22.1453 51.2424 29.9728C49.9523 36.8314 53.3408 42.8844 60.9261 42.8844C63.7512 42.8844 66.9819 41.7578 68.593 39.4143H68.6775L68.1931 41.9972H75.2911L79.7301 17.9485H72.711V18.0302ZM70.452 29.9728C69.9676 32.3107 67.7903 36.1864 63.2695 36.1864C58.9121 36.1864 58.0249 32.3135 58.4249 30.1306C58.9093 27.3871 61.4105 23.917 65.5229 23.917C69.5591 23.917 70.9309 27.1449 70.4464 29.9728H70.452ZM83.8481 18.0302H90.5461L90.0617 20.5314H90.1462C91.0334 19.4047 92.6474 17.1429 96.8442 17.1429L95.5541 24.4099C92.1657 24.4944 89.6392 25.1366 89.0984 28.849L86.5972 42.0873H79.2738L83.8481 18.0302ZM101.683 8.58871H108.95L105.562 26.7449H105.722L114.031 18.0302H122.504L111.449 28.6011L117.823 42.0789H109.671L104.99 30.4573H104.934L102.754 42.0789H95.5711L101.683 8.58871ZM134.075 17.1429C126.808 17.1429 120.273 23.4382 119.062 30.1362C117.772 37.2342 122.532 42.8873 129.472 42.8873C132.054 42.8754 134.578 42.1184 136.739 40.7072C138.998 39.3354 141.097 37.237 142.795 34.5753H135.452C134.241 35.8653 132.869 36.8342 130.608 36.8342C127.782 36.8342 125.763 35.1386 125.819 32.3163H143.846C144.088 31.753 144.17 31.3474 144.33 30.4573C145.702 23.0326 141.426 17.1429 134.075 17.1429ZM126.808 27.3956C127.371 25.9422 129.309 23.2833 133.103 23.2833C136.816 23.2833 137.784 25.945 137.784 27.3956H126.808ZM40.5954 42.0789H47.7779V8.56055H41.6432L28.8921 27.6012H28.8076V8.56055H22.6757L0.162109 42.0789H8.87688L21.5462 23.0382H21.6307V42.0789H27.8443L40.4348 23.0382H40.5954V42.0789ZM162.613 18.0302H158.095L159.385 10.9322H153.09L152.606 13.6756C152.042 16.8218 150.105 17.7879 147.44 18.033H147.355L146.229 23.441H149.778L146.308 42.031H153.49L156.96 23.441H161.56L162.613 18.0302Z" fill="black"/>
<path d="M273.973 32.9639C271.635 38.4508 265.985 42.8899 259.529 42.8899C252.262 42.8899 247.665 37.1608 249.037 29.9783C250.327 22.8803 256.867 17.1484 264.128 17.1484C270.502 17.1484 274.832 21.4241 274.944 27.2884H267.677C267.193 25.5927 266.145 23.8999 263.078 23.8999C259.689 23.7394 256.864 26.5617 256.219 29.9557C255.571 33.4259 257.346 36.0876 260.819 36.0876C263.804 36.0876 265.607 34.392 266.63 32.8597H273.973V32.9639ZM214.259 0.0371094L200.3 8.59133H204.254L191.585 27.632H191.425V8.59133H185.208L172.533 27.6348H172.449V8.59414H165.182V42.1125H171.477L184.146 23.0718H184.231V42.1125H190.444L212.879 8.59414H216.428L214.259 0.0371094ZM227.976 42.0815H220.878L221.363 39.4986H221.278C219.583 41.8364 216.434 42.9688 213.611 42.9688C205.944 42.9688 202.638 36.9129 203.928 30.0571C205.381 22.2268 211.997 17.2272 218.372 17.2272C222.326 17.2272 224.182 19.1651 224.827 20.6157H224.912L225.396 18.1145H232.494L227.976 42.0815ZM215.87 36.1947C220.309 36.1947 222.568 32.3217 223.053 29.9811C223.537 27.0799 222.166 23.9253 218.129 23.9253C214.017 23.9253 211.51 27.3954 211.031 30.1388C210.547 32.3978 211.516 36.1947 215.876 36.1947H215.87ZM250.487 18.0384H245.969L247.259 10.9404H240.964L240.48 13.6839C239.916 16.8301 237.978 17.7962 235.314 18.0412H235.229L234.182 23.4492H237.731L234.26 42.0392H241.443L244.913 23.4492H249.513L250.487 18.0384ZM280.749 8.59696H287.932L285.752 20.5396H285.836C287.369 18.2807 289.47 17.1512 292.616 17.1512C294.875 17.1512 297.461 18.0384 298.672 19.8129C300.204 22.1508 300.044 24.252 299.235 28.6094L296.734 42.0054H289.552L291.974 28.9361C292.216 27.8094 292.861 23.852 289.073 23.852C285.036 23.852 284.391 27.4855 284.149 28.6967L281.648 42.0111H274.55L280.749 8.59696Z" fill="#00B742"/>
</svg>
