<svg width="20" height="20" viewBox="0 0 20 20" fill="none" xmlns="http://www.w3.org/2000/svg">
<g clip-path="url(#clip0_701_671)">
<path d="M11.6182 3.58187H10.6915C10.6915 3.99185 10.9609 4.3531 11.3539 4.47005L11.6182 3.58187ZM12.8509 4.09292L12.4094 4.90767C12.77 5.10307 13.2161 5.03819 13.5061 4.74818L12.8509 4.09292ZM15.4719 6.71396L14.8166 6.0587C14.5267 6.34871 14.4618 6.79486 14.6572 7.15545L15.4719 6.71396ZM15.983 7.94664L15.0948 8.21103C15.2118 8.60394 15.573 8.87333 15.983 8.87333V7.94664ZM15.983 11.6534V10.7267C15.573 10.7267 15.2118 10.9961 15.0948 11.3891L15.983 11.6534ZM15.4719 12.886L14.6572 12.4446C14.4618 12.8051 14.5267 13.2513 14.8166 13.5413L15.4719 12.886ZM12.8509 15.5071L13.5061 14.8518C13.2161 14.5618 12.77 14.497 12.4094 14.6923L12.8509 15.5071ZM11.6182 16.0181L11.3539 15.13C10.9609 15.2469 10.6915 15.6082 10.6915 16.0181H11.6182ZM7.91149 16.0181H8.83817C8.83817 15.6082 8.56878 15.2469 8.17587 15.13L7.91149 16.0181ZM6.67882 15.5071L7.12032 14.6923C6.75972 14.4969 6.31357 14.5618 6.02355 14.8518L6.67882 15.5071ZM4.05778 12.886L4.71304 13.5413C5.00305 13.2512 5.06793 12.8051 4.87253 12.4445L4.05778 12.886ZM3.54672 11.6534L4.43491 11.389C4.31796 10.9961 3.9567 10.7267 3.54672 10.7267V11.6534ZM3.54672 7.94664V8.87333C3.9567 8.87333 4.31796 8.60394 4.43491 8.21093L3.54672 7.94664ZM4.05778 6.71399L4.87253 7.15549C5.06793 6.79489 5.00306 6.34874 4.71304 6.05874L4.05778 6.71399ZM6.67882 4.09294L6.02356 4.7482C6.31357 5.03821 6.75972 5.10309 7.12032 4.90769L6.67882 4.09294ZM7.91149 3.58187L8.17587 4.47005C8.56878 4.3531 8.83817 3.99185 8.83817 3.58187H7.91149ZM8.83817 0.533203C7.8146 0.533203 6.98483 1.36298 6.98483 2.38656H8.83817V0.533203ZM10.6915 0.533203H8.83817V2.38656H10.6915V0.533203ZM12.5449 2.38656C12.5449 1.36298 11.7151 0.533203 10.6915 0.533203V2.38656H12.5449ZM12.5449 3.58187V2.38656H10.6915V3.58187H12.5449ZM13.2923 3.27817C12.848 3.0374 12.3761 2.84058 11.8826 2.69369L11.3539 4.47005C11.7231 4.57993 12.0764 4.72724 12.4094 4.90767L13.2923 3.27817ZM13.0411 2.5921L12.1956 3.43766L13.5061 4.74818L14.3517 3.90262L13.0411 2.5921ZM15.6622 2.5921C14.9384 1.86832 13.765 1.86832 13.0411 2.5921L14.3517 3.90262L15.6622 2.5921ZM16.9728 3.90263L15.6622 2.5921L14.3517 3.90262L15.6622 5.21315L16.9728 3.90263ZM16.9728 6.52367C17.6965 5.79989 17.6965 4.62641 16.9728 3.90263L15.6622 5.21315L16.9728 6.52367ZM16.1272 7.36922L16.9728 6.52367L15.6622 5.21315L14.8166 6.0587L16.1272 7.36922ZM16.8712 7.68231C16.7243 7.18872 16.5275 6.7168 16.2866 6.27246L14.6572 7.15545C14.8376 7.48845 14.9849 7.84174 15.0948 8.21103L16.8712 7.68231ZM15.983 8.87333H17.1783V7.01996H15.983V8.87333ZM17.1783 8.87333H19.0317C19.0317 7.84974 18.2019 7.01996 17.1783 7.01996V8.87333ZM17.1783 8.87333V10.7267H19.0317V8.87333H17.1783ZM17.1783 10.7267V12.58C18.2019 12.58 19.0317 11.7503 19.0317 10.7267H17.1783ZM17.1783 10.7267H15.983V12.58H17.1783V10.7267ZM16.2866 13.3275C16.5275 12.8832 16.7243 12.4113 16.8712 11.9177L15.0948 11.3891C14.9849 11.7583 14.8376 12.1115 14.6572 12.4446L16.2866 13.3275ZM16.9728 13.0764L16.1272 12.2308L14.8166 13.5413L15.6622 14.3869L16.9728 13.0764ZM16.9728 15.6974C17.6965 14.9736 17.6965 13.8001 16.9728 13.0764L15.6622 14.3869L16.9728 15.6974ZM15.6622 17.0079L16.9728 15.6974L15.6622 14.3869L14.3517 15.6974L15.6622 17.0079ZM13.0411 17.0079C13.765 17.7316 14.9384 17.7316 15.6622 17.0079L14.3517 15.6974L13.0411 17.0079ZM12.1956 16.1623L13.0411 17.0079L14.3517 15.6974L13.5061 14.8518L12.1956 16.1623ZM11.8826 16.9063C12.3761 16.7595 12.848 16.5626 13.2923 16.3218L12.4094 14.6923C12.0764 14.8727 11.7231 15.0201 11.3539 15.13L11.8826 16.9063ZM12.5449 17.2134V16.0181H10.6915V17.2134H12.5449ZM10.6915 19.0668C11.7151 19.0668 12.5449 18.2371 12.5449 17.2134H10.6915V19.0668ZM8.83817 19.0668H10.6915V17.2134H8.83817V19.0668ZM6.98483 17.2134C6.98483 18.2371 7.8146 19.0668 8.83817 19.0668V17.2134H6.98483ZM6.98483 16.0181V17.2134H8.83817V16.0181H6.98483ZM6.23732 16.3218C6.68166 16.5626 7.15358 16.7595 7.64717 16.9063L8.17587 15.13C7.8066 15.0201 7.45331 14.8727 7.12032 14.6923L6.23732 16.3218ZM6.48854 17.0079L7.33407 16.1623L6.02355 14.8518L5.17802 15.6973L6.48854 17.0079ZM3.86749 17.0079C4.59128 17.7316 5.76476 17.7317 6.48854 17.0079L5.17802 15.6973L3.86749 17.0079ZM2.55697 15.6973L3.86749 17.0079L5.17802 15.6973L3.86749 14.3868L2.55697 15.6973ZM2.55697 13.0763C1.83319 13.8001 1.83319 14.9736 2.55697 15.6973L3.86749 14.3868L2.55697 13.0763ZM3.40251 12.2308L2.55697 13.0763L3.86749 14.3868L4.71304 13.5413L3.40251 12.2308ZM2.65855 11.9177C2.80544 12.4113 3.00225 12.8832 3.24303 13.3275L4.87253 12.4445C4.6921 12.1115 4.54479 11.7583 4.43491 11.389L2.65855 11.9177ZM3.54672 10.7267H2.35141V12.58H3.54672V10.7267ZM2.35141 10.7267H0.498047C0.498047 11.7503 1.32782 12.58 2.35141 12.58V10.7267ZM2.35141 10.7267V8.87333H0.498047V10.7267H2.35141ZM2.35141 8.87333V7.01996C1.32782 7.01996 0.498047 7.84974 0.498047 8.87333H2.35141ZM2.35141 8.87333H3.54672V7.01996H2.35141V8.87333ZM3.24303 6.2725C3.00226 6.71683 2.80544 7.18874 2.65855 7.68231L4.43491 8.21093C4.54479 7.84175 4.6921 7.48848 4.87253 7.15549L3.24303 6.2725ZM2.55697 6.52372L3.40252 7.36926L4.71304 6.05874L3.8675 5.21319L2.55697 6.52372ZM2.55697 3.90267C1.83319 4.62645 1.8332 5.79993 2.55697 6.52372L3.8675 5.21319L2.55697 3.90267ZM3.8675 2.59215L2.55697 3.90267L3.8675 5.21319L5.17802 3.90267L3.8675 2.59215ZM6.48854 2.59215C5.76477 1.86836 4.59129 1.86836 3.8675 2.59215L5.17802 3.90267L6.48854 2.59215ZM7.33408 3.43768L6.48854 2.59215L5.17802 3.90267L6.02356 4.7482L7.33408 3.43768ZM7.64717 2.69369C7.15358 2.84059 6.68166 3.03741 6.23732 3.2782L7.12032 4.90769C7.45331 4.72725 7.8066 4.57994 8.17587 4.47005L7.64717 2.69369ZM6.98483 2.38656V3.58187H8.83817V2.38656H6.98483Z" fill="white"/>
<path d="M9.76397 12.1158C11.0434 12.1158 12.0807 11.0786 12.0807 9.79912C12.0807 8.51964 11.0434 7.48242 9.76397 7.48242C8.48449 7.48242 7.44727 8.51964 7.44727 9.79912C7.44727 11.0786 8.48449 12.1158 9.76397 12.1158Z" stroke="white" stroke-width="1.20468" stroke-linecap="round" stroke-linejoin="round"/>
</g>
<defs>
<clipPath id="clip0_701_671">
<rect width="18.5336" height="18.5336" fill="white" transform="translate(0.498047 0.533203)"/>
</clipPath>
</defs>
</svg>
