<svg width="45" height="45" viewBox="0 0 45 45" fill="none" xmlns="http://www.w3.org/2000/svg">
<circle cx="22.2861" cy="22.2861" r="21.7861" fill="white" stroke="url(#paint0_linear_701_967)"/>
<mask id="path-2-inside-1_701_967" fill="white">
<path fill-rule="evenodd" clip-rule="evenodd" d="M20.0513 30.6038C21.5931 30.269 23.0191 29.5467 24.1887 28.508C25.2666 27.5553 26.0957 26.3639 26.6068 25.0333C27.1178 23.7027 27.2958 22.2716 27.1259 20.8598C26.956 19.4481 26.4431 18.0967 25.6302 16.9187C24.8173 15.7408 23.728 14.7705 22.4534 14.0891C21.1788 13.4078 19.7561 13.0351 18.3042 13.0024C16.8523 12.9696 15.4135 13.2777 14.1082 13.9008C12.8029 14.524 11.6691 15.4441 10.8016 16.5841C9.93408 17.7241 9.35814 19.051 9.12195 20.4535H10.7858C11.1488 18.7074 12.1518 17.1516 13.6058 16.0793C15.0597 15.007 16.8642 14.4924 18.679 14.6325C19.5873 14.7026 20.4669 14.9342 21.2774 15.3089L21.2766 15.3096C21.7956 15.55 22.2842 15.8487 22.7327 16.1996V16.198L22.7347 16.1964C22.9887 16.3941 23.2304 16.6088 23.4579 16.8396C24.7223 18.1216 25.4638 19.8121 25.5428 21.5923C25.6217 23.3725 25.0326 25.1195 23.8865 26.504C22.7405 27.8884 21.1166 28.8147 19.321 29.1081C17.5254 29.4016 15.6821 29.042 14.1387 28.0971C12.5953 27.1521 11.4584 25.6872 10.9422 23.9785H9.24553C9.61068 25.4824 10.37 26.8672 11.4487 27.9962C12.5274 29.1252 13.8881 29.9595 15.3967 30.4168C16.9053 30.8741 18.5096 30.9385 20.0513 30.6038ZM33.4557 17.6856C34.0568 18.5146 34.4745 19.4574 34.6819 20.4536H36.3458C35.9911 18.3746 34.8952 16.4859 33.2527 15.1228C31.6102 13.7597 29.5274 13.0104 27.374 13.008C26.1256 13.0063 24.8904 13.2583 23.7467 13.7482C24.2691 14.095 24.7569 14.4893 25.2035 14.9259C26.1973 14.6302 27.2431 14.5409 28.2741 14.6638C29.3052 14.7866 30.2986 15.1188 31.1909 15.6392C32.0831 16.1595 32.8545 16.8565 33.4557 17.6856ZM23.7442 30.0701C24.8881 30.5594 26.1233 30.8112 27.3716 30.8096C29.4158 30.8082 31.4001 30.1337 33.0051 28.8946C34.6102 27.6555 35.7428 25.9239 36.2206 23.9785H34.5272C34.2479 24.9022 33.7845 25.7626 33.1639 26.5103C32.5433 27.2579 31.7777 27.8779 30.9112 28.3347C30.0446 28.7914 29.0943 29.0757 28.115 29.1713C27.1357 29.2669 26.1468 29.1719 25.2052 28.8917C24.757 29.3285 24.2679 29.7231 23.7442 30.0701ZM20.54 27.7765C21.0593 27.5686 21.5487 27.2956 21.9961 26.9642L21.9969 26.9626C20.6625 25.6045 19.9171 23.7934 19.9171 21.9092C19.9171 20.0249 20.6625 18.2138 21.9969 16.8557C21.5497 16.5232 21.0599 16.2496 20.54 16.0418C19.0824 17.6634 18.2783 19.7493 18.2783 21.9092C18.2783 24.0691 19.0824 26.155 20.54 27.7765ZM15.0221 23.0171V21.4149H9.01391C9.00464 21.5783 9 21.7431 9 21.9092C8.99982 22.2796 9.02333 22.6496 9.07039 23.0171H15.0221ZM36.4514 21.4149C36.4607 21.5783 36.4653 21.7431 36.4653 21.9092C36.4655 22.2796 36.442 22.6496 36.3949 23.0171H30.4432V21.4149H36.4514Z"/>
</mask>
<path fill-rule="evenodd" clip-rule="evenodd" d="M20.0513 30.6038C21.5931 30.269 23.0191 29.5467 24.1887 28.508C25.2666 27.5553 26.0957 26.3639 26.6068 25.0333C27.1178 23.7027 27.2958 22.2716 27.1259 20.8598C26.956 19.4481 26.4431 18.0967 25.6302 16.9187C24.8173 15.7408 23.728 14.7705 22.4534 14.0891C21.1788 13.4078 19.7561 13.0351 18.3042 13.0024C16.8523 12.9696 15.4135 13.2777 14.1082 13.9008C12.8029 14.524 11.6691 15.4441 10.8016 16.5841C9.93408 17.7241 9.35814 19.051 9.12195 20.4535H10.7858C11.1488 18.7074 12.1518 17.1516 13.6058 16.0793C15.0597 15.007 16.8642 14.4924 18.679 14.6325C19.5873 14.7026 20.4669 14.9342 21.2774 15.3089L21.2766 15.3096C21.7956 15.55 22.2842 15.8487 22.7327 16.1996V16.198L22.7347 16.1964C22.9887 16.3941 23.2304 16.6088 23.4579 16.8396C24.7223 18.1216 25.4638 19.8121 25.5428 21.5923C25.6217 23.3725 25.0326 25.1195 23.8865 26.504C22.7405 27.8884 21.1166 28.8147 19.321 29.1081C17.5254 29.4016 15.6821 29.042 14.1387 28.0971C12.5953 27.1521 11.4584 25.6872 10.9422 23.9785H9.24553C9.61068 25.4824 10.37 26.8672 11.4487 27.9962C12.5274 29.1252 13.8881 29.9595 15.3967 30.4168C16.9053 30.8741 18.5096 30.9385 20.0513 30.6038ZM33.4557 17.6856C34.0568 18.5146 34.4745 19.4574 34.6819 20.4536H36.3458C35.9911 18.3746 34.8952 16.4859 33.2527 15.1228C31.6102 13.7597 29.5274 13.0104 27.374 13.008C26.1256 13.0063 24.8904 13.2583 23.7467 13.7482C24.2691 14.095 24.7569 14.4893 25.2035 14.9259C26.1973 14.6302 27.2431 14.5409 28.2741 14.6638C29.3052 14.7866 30.2986 15.1188 31.1909 15.6392C32.0831 16.1595 32.8545 16.8565 33.4557 17.6856ZM23.7442 30.0701C24.8881 30.5594 26.1233 30.8112 27.3716 30.8096C29.4158 30.8082 31.4001 30.1337 33.0051 28.8946C34.6102 27.6555 35.7428 25.9239 36.2206 23.9785H34.5272C34.2479 24.9022 33.7845 25.7626 33.1639 26.5103C32.5433 27.2579 31.7777 27.8779 30.9112 28.3347C30.0446 28.7914 29.0943 29.0757 28.115 29.1713C27.1357 29.2669 26.1468 29.1719 25.2052 28.8917C24.757 29.3285 24.2679 29.7231 23.7442 30.0701ZM20.54 27.7765C21.0593 27.5686 21.5487 27.2956 21.9961 26.9642L21.9969 26.9626C20.6625 25.6045 19.9171 23.7934 19.9171 21.9092C19.9171 20.0249 20.6625 18.2138 21.9969 16.8557C21.5497 16.5232 21.0599 16.2496 20.54 16.0418C19.0824 17.6634 18.2783 19.7493 18.2783 21.9092C18.2783 24.0691 19.0824 26.155 20.54 27.7765ZM15.0221 23.0171V21.4149H9.01391C9.00464 21.5783 9 21.7431 9 21.9092C8.99982 22.2796 9.02333 22.6496 9.07039 23.0171H15.0221ZM36.4514 21.4149C36.4607 21.5783 36.4653 21.7431 36.4653 21.9092C36.4655 22.2796 36.442 22.6496 36.3949 23.0171H30.4432V21.4149H36.4514Z" fill="#0052FF"/>
<path d="M24.1887 28.508L23.8576 28.1333L23.8566 28.1341L24.1887 28.508ZM20.0513 30.6038L19.9452 30.1152L19.9452 30.1152L20.0513 30.6038ZM26.6068 25.0333L27.0735 25.2125L27.0735 25.2125L26.6068 25.0333ZM27.1259 20.8598L26.6294 20.9196L26.6294 20.9196L27.1259 20.8598ZM25.6302 16.9187L25.2187 17.2027L25.2187 17.2027L25.6302 16.9187ZM22.4534 14.0891L22.2177 14.5301L22.2177 14.5301L22.4534 14.0891ZM18.3042 13.0024L18.2929 13.5022L18.2929 13.5022L18.3042 13.0024ZM14.1082 13.9008L14.3236 14.352L14.1082 13.9008ZM10.8016 16.5841L10.4037 16.2813L10.4037 16.2813L10.8016 16.5841ZM9.12195 20.4535L8.62889 20.3705L8.53071 20.9535H9.12195V20.4535ZM10.7858 20.4535V20.9535H11.1926L11.2754 20.5553L10.7858 20.4535ZM13.6058 16.0793L13.309 15.6769L13.309 15.6769L13.6058 16.0793ZM18.679 14.6325L18.7175 14.1339L18.679 14.6325ZM21.2774 15.3089L21.6089 15.6833L22.1817 15.1761L21.4872 14.8551L21.2774 15.3089ZM21.2766 15.3096L20.9452 14.9352L20.3729 15.4419L21.0664 15.7633L21.2766 15.3096ZM22.7327 16.1996L22.4245 16.5934L23.2327 17.2257V16.1996H22.7327ZM22.7327 16.198L22.4253 15.8037L22.2327 15.9538V16.198H22.7327ZM22.7347 16.1964L23.0419 15.8019L22.7345 15.5626L22.4273 15.8021L22.7347 16.1964ZM23.4579 16.8396L23.1019 17.1907L23.1019 17.1907L23.4579 16.8396ZM25.5428 21.5923L25.0433 21.6145L25.0433 21.6145L25.5428 21.5923ZM23.8865 26.504L24.2717 26.8228L24.2717 26.8228L23.8865 26.504ZM19.321 29.1081L19.2403 28.6147L19.2403 28.6147L19.321 29.1081ZM14.1387 28.0971L14.3998 27.6706L14.3998 27.6706L14.1387 28.0971ZM10.9422 23.9785L11.4208 23.8339L11.3134 23.4785H10.9422V23.9785ZM9.24553 23.9785V23.4785H8.60961L8.75965 24.0964L9.24553 23.9785ZM11.4487 27.9962L11.8102 27.6508L11.8102 27.6508L11.4487 27.9962ZM34.6819 20.4536L34.1924 20.5555L34.2753 20.9536H34.6819V20.4536ZM33.4557 17.6856L33.8605 17.3921L33.8605 17.3921L33.4557 17.6856ZM36.3458 20.4536V20.9536H36.9383L36.8387 20.3695L36.3458 20.4536ZM33.2527 15.1228L32.9334 15.5076L32.9334 15.5076L33.2527 15.1228ZM27.374 13.008L27.3733 13.508L27.3735 13.508L27.374 13.008ZM23.7467 13.7482L23.5498 13.2886L22.6991 13.653L23.4702 14.1648L23.7467 13.7482ZM25.2035 14.9259L24.854 15.2834L25.0643 15.4889L25.3461 15.4051L25.2035 14.9259ZM31.1909 15.6392L31.4427 15.2073L31.4427 15.2073L31.1909 15.6392ZM27.3716 30.8096L27.3712 30.3096L27.3709 30.3096L27.3716 30.8096ZM23.7442 30.0701L23.468 29.6534L22.6955 30.1654L23.5476 30.5298L23.7442 30.0701ZM33.0051 28.8946L33.3107 29.2904L33.3107 29.2904L33.0051 28.8946ZM36.2206 23.9785L36.7062 24.0977L36.8582 23.4785H36.2206V23.9785ZM34.5272 23.9785V23.4785H34.1561L34.0486 23.8337L34.5272 23.9785ZM33.1639 26.5103L33.5487 26.8296L33.5487 26.8296L33.1639 26.5103ZM28.115 29.1713L28.1636 29.6689L28.1636 29.6689L28.115 29.1713ZM25.2052 28.8917L25.3478 28.4125L25.0664 28.3287L24.8562 28.5337L25.2052 28.8917ZM21.9961 26.9642L22.2937 27.366L22.3879 27.2962L22.4412 27.1918L21.9961 26.9642ZM20.54 27.7765L20.1682 28.1108L20.4017 28.3705L20.7259 28.2407L20.54 27.7765ZM21.9969 26.9626L22.4421 27.1902L22.6062 26.8693L22.3535 26.6122L21.9969 26.9626ZM21.9969 16.8557L22.3535 17.2062L22.7557 16.7969L22.2952 16.4545L21.9969 16.8557ZM20.54 16.0418L20.7256 15.5775L20.4015 15.448L20.1682 15.7075L20.54 16.0418ZM15.0221 21.4149H15.5221V20.9149H15.0221V21.4149ZM15.0221 23.0171V23.5171H15.5221V23.0171H15.0221ZM9.01391 21.4149V20.9149H8.54149L8.51472 21.3866L9.01391 21.4149ZM9 21.9092L9.5 21.9094V21.9092H9ZM9.07039 23.0171L8.57444 23.0806L8.63032 23.5171H9.07039V23.0171ZM36.4653 21.9092H35.9653L35.9653 21.9094L36.4653 21.9092ZM36.4514 21.4149L36.9506 21.3865L36.9238 20.9149H36.4514V21.4149ZM36.3949 23.0171V23.5171H36.835L36.8909 23.0806L36.3949 23.0171ZM30.4432 23.0171H29.9432V23.5171H30.4432V23.0171ZM30.4432 21.4149V20.9149H29.9432V21.4149H30.4432ZM23.8566 28.1341C22.7519 29.1153 21.4039 29.7985 19.9452 30.1152L20.1574 31.0924C21.7823 30.7396 23.2863 29.9781 24.5207 28.8818L23.8566 28.1341ZM26.14 24.854C25.6581 26.1088 24.8758 27.2334 23.8576 28.1333L24.5198 28.8826C25.6574 27.8772 26.5334 26.619 27.0735 25.2125L26.14 24.854ZM26.6294 20.9196C26.7896 22.2502 26.6219 23.5993 26.14 24.854L27.0735 25.2125C27.6137 23.806 27.8019 22.2929 27.6223 20.8001L26.6294 20.9196ZM25.2187 17.2027C25.9858 18.3144 26.4693 19.5889 26.6294 20.9196L27.6223 20.8001C27.4426 19.3073 26.9004 17.879 26.0417 16.6347L25.2187 17.2027ZM22.2177 14.5301C23.4227 15.1743 24.4515 16.091 25.2187 17.2027L26.0417 16.6347C25.1831 15.3905 24.0332 14.3667 22.6891 13.6482L22.2177 14.5301ZM18.2929 13.5022C19.6668 13.5332 21.0126 13.8859 22.2177 14.5301L22.6891 13.6482C21.345 12.9297 19.8454 12.537 18.3155 12.5025L18.2929 13.5022ZM14.3236 14.352C15.5579 13.7628 16.919 13.4712 18.2929 13.5022L18.3155 12.5025C16.7856 12.468 15.2691 12.7926 13.8928 13.4496L14.3236 14.352ZM11.1995 16.8869C12.0184 15.8108 13.0894 14.9413 14.3236 14.352L13.8928 13.4496C12.5165 14.1067 11.3198 15.0774 10.4037 16.2813L11.1995 16.8869ZM9.61501 20.5366C9.83764 19.2145 10.3807 17.9629 11.1995 16.8869L10.4037 16.2813C9.4875 17.4853 8.87863 18.8874 8.62889 20.3705L9.61501 20.5366ZM10.7858 19.9535H9.12195V20.9535H10.7858V19.9535ZM13.309 15.6769C11.7574 16.8212 10.6847 18.4834 10.2963 20.3518L11.2754 20.5553C11.6129 18.9314 12.5462 17.482 13.9025 16.4817L13.309 15.6769ZM18.7175 14.1339C16.784 13.9847 14.8603 14.5328 13.309 15.6769L13.9025 16.4817C15.2591 15.4813 16.9444 15.0001 18.6405 15.131L18.7175 14.1339ZM21.4872 14.8551C20.6229 14.4555 19.6854 14.2086 18.7175 14.1339L18.6405 15.131C19.4893 15.1965 20.3108 15.4129 21.0676 15.7628L21.4872 14.8551ZM21.6081 15.6839L21.6089 15.6833L20.9459 14.9346L20.9452 14.9352L21.6081 15.6839ZM23.0408 15.8058C22.5619 15.4312 22.0405 15.1124 21.4869 14.8559L21.0664 15.7633C21.5507 15.9876 22.0064 16.2663 22.4245 16.5934L23.0408 15.8058ZM22.2327 16.198V16.1996H23.2327V16.198H22.2327ZM22.4273 15.8021L22.4253 15.8037L23.04 16.5924L23.0421 16.5908L22.4273 15.8021ZM23.8139 16.4885C23.5709 16.2421 23.3129 16.0129 23.0419 15.8019L22.4276 16.5909C22.6644 16.7753 22.8898 16.9755 23.1019 17.1907L23.8139 16.4885ZM26.0423 21.5701C25.9578 19.6649 25.1642 17.8576 23.8139 16.4885L23.1019 17.1907C24.2804 18.3856 24.9699 19.9593 25.0433 21.6145L26.0423 21.5701ZM24.2717 26.8228C25.4961 25.3437 26.1268 23.4755 26.0423 21.5701L25.0433 21.6145C25.1167 23.2696 24.5691 24.8953 23.5014 26.1852L24.2717 26.8228ZM19.4016 29.6016C21.3149 29.2889 23.0475 28.3016 24.2717 26.8228L23.5014 26.1851C22.4334 27.4753 20.9183 28.3405 19.2403 28.6147L19.4016 29.6016ZM13.8777 28.5235C15.5239 29.5313 17.4885 29.9143 19.4016 29.6016L19.2403 28.6147C17.5623 28.8889 15.8404 28.5526 14.3998 27.6706L13.8777 28.5235ZM10.4635 24.123C11.0157 25.9511 12.2312 27.5155 13.8777 28.5235L14.3998 27.6706C12.9594 26.7888 11.901 25.4234 11.4208 23.8339L10.4635 24.123ZM9.24553 24.4785H10.9422V23.4785H9.24553V24.4785ZM11.8102 27.6508C10.7917 26.5847 10.0756 25.2782 9.73142 23.8605L8.75965 24.0964C9.14573 25.6866 9.94837 27.1496 11.0872 28.3416L11.8102 27.6508ZM15.5417 29.9383C14.1148 29.5058 12.8288 28.7169 11.8102 27.6508L11.0872 28.3416C12.226 29.5335 13.6615 30.4133 15.2517 30.8953L15.5417 29.9383ZM19.9452 30.1152C18.4866 30.4319 16.9687 30.3709 15.5417 29.9383L15.2517 30.8953C16.8418 31.3773 18.5325 31.4452 20.1574 31.0924L19.9452 30.1152ZM35.1714 20.3516C34.9495 19.2859 34.5028 18.2779 33.8605 17.3921L33.0509 17.9791C33.6109 18.7513 33.9995 19.6289 34.1924 20.5555L35.1714 20.3516ZM36.3458 19.9536H34.6819V20.9536H36.3458V19.9536ZM32.9334 15.5076C34.4852 16.7954 35.5186 18.578 35.8529 20.5376L36.8387 20.3695C36.4636 18.1712 35.3052 16.1764 33.572 14.738L32.9334 15.5076ZM27.3735 13.508C29.4115 13.5103 31.3814 14.2196 32.9334 15.5076L33.572 14.738C31.8391 13.2999 29.6433 12.5106 27.3746 12.508L27.3735 13.508ZM23.9436 14.2078C25.0246 13.7448 26.1926 13.5063 27.3733 13.508L27.3747 12.508C26.0586 12.5062 24.7562 12.7719 23.5498 13.2886L23.9436 14.2078ZM25.553 14.5683C25.0839 14.1097 24.5717 13.6957 24.0232 13.3316L23.4702 14.1648C23.9666 14.4943 24.4299 14.8688 24.854 15.2834L25.553 14.5683ZM28.3333 14.1673C27.2347 14.0364 26.1201 14.1315 25.0609 14.4466L25.3461 15.4051C26.2744 15.1289 27.2516 15.0455 28.215 15.1602L28.3333 14.1673ZM31.4427 15.2073C30.491 14.6522 29.4319 14.2982 28.3333 14.1673L28.215 15.1602C29.1784 15.275 30.1062 15.5854 30.939 16.0711L31.4427 15.2073ZM33.8605 17.3921C33.2182 16.5063 32.3945 15.7623 31.4427 15.2073L30.939 16.0711C31.7717 16.5568 32.4909 17.2068 33.0509 17.9791L33.8605 17.3921ZM27.3709 30.3096C26.1902 30.3111 25.0222 30.0729 23.9409 29.6104L23.5476 30.5298C24.7541 31.0459 26.0563 31.3113 27.3722 31.3096L27.3709 30.3096ZM32.6996 28.4988C31.1827 29.6698 29.306 30.3082 27.3712 30.3096L27.3719 31.3096C29.5256 31.3081 31.6174 30.5975 33.3107 29.2904L32.6996 28.4988ZM35.735 23.8592C35.2846 25.6934 34.2163 27.328 32.6996 28.4988L33.3107 29.2904C35.0042 27.9831 36.201 26.1545 36.7062 24.0977L35.735 23.8592ZM34.5272 24.4785H36.2206V23.4785H34.5272V24.4785ZM33.5487 26.8296C34.2116 26.031 34.707 25.1112 35.0058 24.1232L34.0486 23.8337C33.7887 24.6931 33.3575 25.4943 32.7792 26.1909L33.5487 26.8296ZM31.1443 28.777C32.0685 28.2899 32.8857 27.6282 33.5487 26.8296L32.7792 26.1909C32.2009 26.8876 31.4869 27.466 30.678 27.8923L31.1443 28.777ZM28.1636 29.6689C29.2071 29.5671 30.2201 29.264 31.1443 28.777L30.678 27.8923C29.8691 28.3187 28.9815 28.5843 28.0665 28.6737L28.1636 29.6689ZM25.0626 29.3709C26.0662 29.6696 27.1201 29.7708 28.1636 29.6689L28.0665 28.6737C27.1514 28.763 26.2273 28.6742 25.3478 28.4125L25.0626 29.3709ZM24.0205 30.4869C24.5701 30.1226 25.0836 29.7084 25.5542 29.2497L24.8562 28.5337C24.4305 28.9486 23.9658 29.3235 23.468 29.6534L24.0205 30.4869ZM21.6985 26.5624C21.2857 26.8682 20.8338 27.1203 20.3542 27.3124L20.7259 28.2407C21.2847 28.0169 21.8117 27.723 22.2937 27.366L21.6985 26.5624ZM21.5517 26.735L21.5509 26.7366L22.4412 27.1918L22.4421 27.1902L21.5517 26.735ZM19.4171 21.9092C19.4171 23.926 20.215 25.8625 21.6402 27.313L22.3535 26.6122C21.1099 25.3465 20.4171 23.6608 20.4171 21.9092H19.4171ZM21.6402 16.5053C20.215 17.9558 19.4171 19.8923 19.4171 21.9092H20.4171C20.4171 20.1575 21.1099 18.4719 22.3535 17.2062L21.6402 16.5053ZM20.3545 16.5061C20.8344 16.6979 21.2862 16.9504 21.6985 17.257L22.2952 16.4545C21.8132 16.0961 21.2855 15.8013 20.7256 15.5775L20.3545 16.5061ZM18.7783 21.9092C18.7783 19.874 19.5358 17.9068 20.9119 16.3761L20.1682 15.7075C18.6289 17.4199 17.7783 19.6245 17.7783 21.9092H18.7783ZM20.9119 27.4423C19.5358 25.9116 18.7783 23.9444 18.7783 21.9092H17.7783C17.7783 24.1938 18.6289 26.3984 20.1682 28.1108L20.9119 27.4423ZM14.5221 21.4149V23.0171H15.5221V21.4149H14.5221ZM9.01391 21.9149H15.0221V20.9149H9.01391V21.9149ZM9.5 21.9092C9.5 21.7524 9.50438 21.5971 9.51311 21.4432L8.51472 21.3866C8.5049 21.5596 8.5 21.7338 8.5 21.9092H9.5ZM9.56634 22.9536C9.52199 22.6072 9.49983 22.2585 9.5 21.9094L8.5 21.9089C8.49981 22.3006 8.52468 22.692 8.57444 23.0806L9.56634 22.9536ZM15.0221 22.5171H9.07039V23.5171H15.0221V22.5171ZM36.9653 21.9092C36.9653 21.7338 36.9604 21.5596 36.9506 21.3865L35.9522 21.4432C35.9609 21.5971 35.9653 21.7524 35.9653 21.9092H36.9653ZM36.8909 23.0806C36.9406 22.692 36.9655 22.3006 36.9653 21.9089L35.9653 21.9094C35.9655 22.2585 35.9433 22.6072 35.899 22.9536L36.8909 23.0806ZM30.4432 23.5171H36.3949V22.5171H30.4432V23.5171ZM29.9432 21.4149V23.0171H30.9432V21.4149H29.9432ZM36.4514 20.9149H30.4432V21.9149H36.4514V20.9149Z" fill="url(#paint1_linear_701_967)" mask="url(#path-2-inside-1_701_967)"/>
<defs>
<linearGradient id="paint0_linear_701_967" x1="22.2861" y1="0" x2="22.2861" y2="44.5722" gradientUnits="userSpaceOnUse">
<stop stop-color="#0054FF"/>
<stop offset="1" stop-color="#003299"/>
</linearGradient>
<linearGradient id="paint1_linear_701_967" x1="22.7326" y1="13" x2="22.7326" y2="30.8148" gradientUnits="userSpaceOnUse">
<stop stop-color="#0054FF"/>
<stop offset="1" stop-color="#003299"/>
</linearGradient>
</defs>
</svg>
