<svg width="205" height="75" viewBox="0 0 205 75" fill="none" xmlns="http://www.w3.org/2000/svg">
<path fill-rule="evenodd" clip-rule="evenodd" d="M74.0138 22.465V44.803H79.548H85.0821V36.2115C85.0821 30.541 85.0821 27.4481 85.0821 27.1044C85.255 26.2453 85.428 25.3861 85.9468 24.6988C86.6386 23.496 87.8492 22.9805 89.2327 23.1523C91.1351 23.3241 92.3457 24.3551 92.6915 26.5889C92.6915 26.9326 92.6915 30.3692 92.6915 35.8678V44.6312H98.2257H103.76V34.3213C103.76 25.5579 103.76 23.8396 103.587 22.9805C103.241 19.8875 102.203 17.4819 100.301 15.7636C98.7445 14.2171 96.8421 13.3579 94.5939 13.0143C93.7292 12.8424 91.308 13.0143 90.6162 13.1861C88.5409 13.7016 86.9845 14.3889 85.6009 15.9354L84.7362 16.6227V8.37484V0.126953H79.2021H73.6679V22.465H74.0138ZM191.614 0.470616C191.268 1.15794 180.027 28.1354 180.027 28.1354C180.027 28.1354 182.967 28.1354 186.599 28.1354H193.171L199.051 14.2171C202.337 6.4847 204.931 0.126953 204.931 0.126953C204.931 0.126953 201.991 0.126953 198.359 0.126953H191.787L191.614 0.470616ZM49.8019 13.1861C47.3808 13.5298 45.4784 14.2171 43.576 15.4199C39.7713 17.8255 37.3501 21.9495 36.6584 26.7608C36.3125 28.9946 36.4854 31.7439 37.0042 33.8058C38.3878 39.1326 42.0196 43.2565 46.689 44.803C48.4184 45.3185 49.1102 45.4903 51.1855 45.4903C52.742 45.4903 53.2608 45.4903 53.7796 45.3185C56.0279 44.803 57.5843 43.9439 58.9679 42.5692L59.6596 41.8819V43.2565V44.6312H65.0208H70.382V29.1664V13.7016H65.0208H59.6596V15.0763V16.4509L59.1408 15.9354C57.9302 14.5608 56.2008 13.7016 53.9525 13.1861C53.2608 13.0143 52.9149 13.0143 51.5314 13.0143C50.6667 13.1861 49.9749 13.1861 49.8019 13.1861ZM120.362 13.1861C117.422 13.5298 114.309 14.9044 112.061 16.6227C107.737 20.2312 105.489 25.9016 106.354 31.7439C107.219 38.2734 111.888 43.2565 118.46 44.9748C119.843 45.3185 121.227 45.4903 122.956 45.4903C126.069 45.4903 128.318 44.9748 130.739 43.772C135.581 41.3664 138.694 37.0706 139.386 31.7439C139.559 30.3692 139.559 28.1354 139.386 26.9326C139.04 24.3551 138.002 21.7777 136.446 19.7157C135.754 18.8565 134.371 17.31 133.506 16.6227C131.085 14.7326 128.318 13.5298 125.205 13.1861C123.994 13.0143 121.573 13.0143 120.362 13.1861ZM155.642 13.1861C152.702 13.5298 149.762 14.7326 147.514 16.6227C146.649 17.31 145.093 18.8565 144.574 19.7157C143.018 21.7777 142.153 24.3551 141.634 26.9326C141.461 28.1354 141.461 30.541 141.634 31.7439C142.672 38.6171 147.687 43.9439 154.605 45.3185C155.988 45.6622 156.68 45.6622 158.237 45.6622C161.177 45.6622 163.771 45.1467 166.192 43.772C172.591 40.5072 176.05 33.2903 174.493 25.9016C173.11 19.0284 167.575 14.0453 160.485 13.1861C159.274 13.0143 156.853 13.0143 155.642 13.1861ZM0.859375 13.8734C0.859375 13.8734 3.79939 20.9185 7.43117 29.51C11.0629 38.1016 14.003 45.1467 14.003 45.1467C14.003 45.1467 12.9653 47.7241 11.5818 50.8171C10.1982 53.91 9.16059 56.3157 9.16059 56.4875C9.16059 56.6594 11.7547 56.4875 15.0406 56.4875H20.9206L29.7407 35.3523C34.5831 23.6678 38.5607 14.2171 38.5607 14.0453C38.5607 14.0453 37.3501 13.8734 32.6807 14.0453H26.8007L23.1689 22.9805C21.6124 27.7917 20.0559 31.9157 20.0559 31.9157C20.0559 31.9157 18.4995 27.7917 16.4241 22.9805L12.9653 14.0453H6.91234C3.62645 13.8734 0.859375 13.8734 0.859375 13.8734ZM55.1631 23.1523C57.4114 23.6678 59.1408 25.3861 59.8326 27.6199C60.0055 28.4791 60.0055 30.0255 59.8326 30.8847C59.3137 33.1185 57.5843 34.8368 55.3361 35.3523C54.4714 35.5241 52.9149 35.5241 52.0502 35.3523C50.1478 34.8368 48.4184 33.4622 47.7266 31.7439C46.8619 29.8537 47.2078 27.4481 48.2455 25.7298C49.8019 23.496 52.3961 22.6368 55.1631 23.1523ZM124.167 23.3241C126.588 23.6678 128.491 25.5579 129.009 27.9636C129.182 28.8227 129.182 30.1974 129.009 31.0565C128.491 33.2903 126.761 34.8368 124.686 35.5241C123.994 35.696 122.092 35.696 121.4 35.5241C119.67 35.0086 118.287 33.8058 117.422 32.2593C116.903 31.2284 116.903 30.7129 116.903 29.51C116.903 28.4791 117.076 27.9636 117.422 27.1044C117.941 26.0734 118.633 25.0424 119.67 24.3551C120.708 23.3241 122.438 22.9805 124.167 23.3241ZM159.274 23.3241C161.349 23.6678 163.079 25.0424 163.771 26.9326C164.117 27.7917 164.29 28.3072 164.29 29.3382C164.29 30.541 164.117 31.0565 163.771 32.0875C163.079 33.634 161.522 34.8368 159.793 35.3523C159.101 35.5241 157.199 35.5241 156.507 35.3523C154.432 34.8368 152.702 33.1185 152.184 30.8847C152.011 30.0255 152.011 28.4791 152.184 27.6199C152.875 24.8706 155.297 22.9805 158.064 22.9805C158.409 23.1523 158.928 23.1523 159.274 23.3241ZM182.794 30.8847C179.508 31.2284 177.087 33.634 176.395 36.727C176.222 37.5861 176.222 39.1326 176.395 39.9917C177.087 42.741 179.163 44.6312 181.93 45.3185C182.275 45.3185 182.967 45.4903 183.486 45.4903C185.561 45.4903 187.291 44.803 188.674 43.4284C190.231 41.8819 190.75 40.3354 190.75 38.2734C190.75 35.696 189.539 33.4622 187.464 32.2593C186.08 31.0565 184.178 30.7129 182.794 30.8847ZM91.6539 47.7241C89.4056 48.4115 88.368 50.9889 89.5786 52.8791C89.9245 53.3946 90.6162 54.0819 91.1351 54.2537C91.6539 54.4255 91.6539 54.4255 92.6915 54.4255C93.5563 54.4255 93.7292 54.4255 94.248 54.2537C94.9398 53.9101 95.6316 53.2227 95.9774 52.5354C96.8421 50.8171 95.9774 48.7551 94.248 47.896C93.7292 47.5523 93.5562 47.5523 92.8645 47.5523C92.1727 47.5523 91.9998 47.5523 91.6539 47.7241ZM82.315 47.896C79.375 48.4115 77.4726 50.3016 76.6079 53.3946C76.435 53.91 76.435 54.4255 76.435 55.1129V56.3157H75.2244H74.0138V58.8931V61.4706H75.2244H76.435V67.6565V73.8425H79.7209H83.0068V67.6565V61.4706H85.255H87.5033V58.8931V56.3157H85.255H83.0068V55.8002C83.1797 54.5974 83.6986 53.7382 84.7362 53.5664C85.428 53.3946 86.4656 53.3946 87.1574 53.7382C87.5033 53.9101 87.6762 53.91 87.6762 53.91C87.6762 53.91 87.6762 52.7072 87.6762 51.1608V48.4115L87.1574 48.2396C86.4656 47.896 85.6009 47.896 84.3903 47.896C83.5256 47.7241 82.8339 47.896 82.315 47.896ZM108.602 55.972C107.219 56.3157 106.181 57.003 105.489 57.8622L105.143 58.3777V57.3467V56.3157H101.857H98.5716V65.0791V73.8425H101.857H105.143V69.0312C105.143 66.2819 105.143 64.0481 105.143 63.7044C105.316 63.0171 105.662 62.3298 106.008 61.9861C106.873 61.2988 108.429 61.4706 109.121 62.3298C109.64 63.0171 109.64 63.0171 109.64 68.5157V73.6706H112.926H116.212V67.8284C116.212 61.6424 116.212 60.9551 115.866 59.7523C115.52 58.7213 115.174 57.8622 114.309 57.1748C113.618 56.4875 112.926 55.972 111.888 55.8002C111.023 55.8002 109.294 55.8002 108.602 55.972ZM125.032 55.8002C123.994 55.972 122.438 56.4875 121.573 57.1748C119.67 58.5495 118.46 60.6115 117.941 63.1889C117.768 64.2199 117.768 66.1101 117.941 67.141C118.287 68.6875 118.806 70.234 119.67 71.265C120.881 72.8115 122.438 73.8424 124.34 74.1861C125.378 74.3579 127.107 74.3579 127.972 74.0143C129.009 73.6706 129.701 73.327 130.566 72.6396L131.258 71.9523V72.8115V73.6706H134.544H137.829V64.9072V56.1439H134.544H131.258V57.003V57.8622L130.739 57.6903C129.874 56.8312 128.663 56.1439 127.28 55.972C126.761 55.8002 125.551 55.8002 125.032 55.8002ZM150.108 55.972C148.898 56.1439 147.687 57.003 146.995 57.8622L146.649 58.2058V57.1748V56.1439H143.364H140.078V64.9072V73.6706H143.364H146.649V68.6875C146.649 63.3608 146.649 63.3608 146.995 62.5016C147.341 61.8143 148.033 61.4706 148.725 61.4706C149.417 61.4706 149.762 61.6424 150.281 61.9861C150.973 62.6734 150.973 62.5016 150.973 68.3438V73.4988H154.259H157.545V67.141C157.545 60.7833 157.545 60.7833 157.372 60.096C157.199 59.7523 157.026 59.065 156.853 58.5495C156.507 57.8622 156.334 57.6903 155.815 57.1748C155.124 56.4875 154.605 56.1439 153.913 55.8002C152.702 55.8002 151.319 55.6284 150.108 55.972ZM167.23 55.972C164.289 56.4875 162.041 57.8622 160.658 60.2678C160.312 60.9551 159.966 61.8143 159.62 62.6734C159.447 63.5326 159.447 63.7044 159.447 65.0791C159.447 66.6255 159.447 67.141 159.966 68.3438C161.004 71.265 163.425 73.4988 166.711 74.1861C167.23 74.3579 167.748 74.3579 168.959 74.3579C170.688 74.3579 171.38 74.1861 172.591 73.6706L173.282 73.327V70.4058V67.4847L172.764 67.8284C171.899 68.3439 171.38 68.5157 170.342 68.5157C169.305 68.5157 168.786 68.5157 168.094 68.172C167.402 67.8284 166.884 67.3129 166.538 66.6255C166.365 66.11 166.365 66.1101 166.365 65.2509C166.365 64.5636 166.365 64.3917 166.538 63.8762C167.057 62.5016 168.267 61.8143 169.997 61.6425C171.207 61.6425 171.726 61.6425 173.455 62.5016C173.455 62.5016 173.455 61.1269 173.455 59.5805V56.6594L172.937 56.4875C171.034 55.8002 168.959 55.6284 167.23 55.972ZM182.103 55.972C177.087 56.8312 173.974 61.127 174.32 66.1101C174.493 67.8284 175.012 69.3748 175.877 70.5777C177.087 72.4678 178.99 73.6706 181.411 74.1861C182.448 74.3579 185.215 74.3579 186.426 74.1861C188.155 73.8424 189.712 72.9833 190.923 71.7805C191.441 71.265 192.306 70.0622 192.306 70.0622C192.306 70.0622 191.096 69.5467 189.539 69.0312L186.772 68.0002L186.426 68.3438C185.907 68.8593 185.561 69.0312 184.87 69.203C182.967 69.7185 181.065 68.6875 180.719 66.9692V66.6255H186.772H192.825V65.0791C192.825 64.0481 192.825 63.3608 192.652 63.0171C192.306 60.9551 191.441 59.5805 190.231 58.2058C189.02 57.003 187.637 56.3157 185.734 55.972C185.043 55.8002 182.967 55.8002 182.103 55.972ZM89.4056 65.0791V73.8425H92.6915H95.9774V65.0791V56.3157H92.6915H89.4056V65.0791ZM184.697 60.7833C185.215 60.9551 185.388 61.1269 185.907 61.4706C186.253 61.8143 186.599 62.1579 186.599 62.6734V63.0171H183.659C180.373 63.0171 180.546 63.0171 180.892 62.3298C181.411 61.1269 182.967 60.4396 184.697 60.7833ZM128.836 61.6425C129.701 61.8143 130.739 62.6734 131.085 63.5326C131.949 65.4227 131.085 67.6565 129.009 68.3438C128.318 68.5157 127.28 68.5157 126.588 68.3438C125.551 68.0002 124.513 67.141 124.34 66.1101C124.167 65.5946 124.167 65.4227 124.167 64.9072C124.167 64.2199 124.167 64.0481 124.513 63.5326C125.205 61.9861 126.934 61.2988 128.836 61.6425Z" fill="#821FFA"/>
</svg>
