<svg width="241" height="243" viewBox="0 0 241 243" fill="none" xmlns="http://www.w3.org/2000/svg">
<g clip-path="url(#clip0_701_746)">
<path d="M180.929 228.018C177.894 225.535 174.707 223.221 171.443 221.013C164.819 216.535 157.837 212.528 150.78 208.648C147.069 206.607 143.216 204.76 139.411 202.861C135.584 200.949 131.75 199.05 127.908 197.163C124.399 195.433 120.893 193.7 117.392 191.964C109.433 165.038 100.79 134.512 102.507 134.512L232.994 130.824C236.066 130.824 238.127 133.327 237.588 136.4L221.774 226.635C221.236 229.709 218.299 232.21 215.227 232.21H186.191C184.478 230.763 182.662 229.435 180.929 228.018Z" fill="#99B9FF"/>
<path d="M186.032 232.648H215.229C218.504 232.648 221.633 229.985 222.204 226.712L238.02 136.476C238.307 134.843 237.929 133.307 236.956 132.148C236.003 131.013 234.598 130.389 232.996 130.389L102.497 134.077C102.409 134.079 102.322 134.101 102.244 134.143C102.165 134.184 102.098 134.243 102.046 134.315C101.626 134.879 100.509 136.375 116.977 192.09L117.031 192.273L117.201 192.358C120.702 194.097 124.208 195.83 127.719 197.557C131.615 199.479 135.428 201.36 139.22 203.254C140.079 203.682 140.939 204.109 141.802 204.535C144.705 205.971 147.708 207.457 150.573 209.033C156.859 212.489 164.224 216.659 171.2 221.377C174.775 223.794 177.867 226.078 180.655 228.358C181.417 228.98 182.204 229.595 182.967 230.189C183.944 230.952 184.954 231.741 185.911 232.548L186.032 232.648ZM233.016 131.262C234.341 131.262 235.51 131.777 236.294 132.711C237.097 133.668 237.408 134.95 237.167 136.325L221.348 226.56C220.844 229.436 218.1 231.773 215.229 231.773H186.351C185.418 230.991 184.444 230.232 183.503 229.497C182.743 228.906 181.96 228.294 181.206 227.678C178.398 225.381 175.284 223.083 171.688 220.65C164.683 215.909 157.295 211.731 150.993 208.269C148.111 206.689 145.1 205.195 142.187 203.754C141.327 203.327 140.467 202.901 139.608 202.474C135.815 200.58 132.001 198.698 128.103 196.775C124.654 195.074 121.206 193.37 117.759 191.663C103.881 144.698 102.537 136.243 102.728 134.947L233.016 131.262Z" fill="black"/>
<path d="M98.7851 131.141H230.292C233.194 131.141 235.135 133.496 234.626 136.4L218.813 226.635C218.304 229.541 215.538 231.896 212.636 231.896H81.1287C78.2255 231.896 76.2856 229.541 76.7949 226.635L92.6075 136.4C93.1168 133.496 95.8819 131.141 98.7851 131.141Z" fill="white"/>
<path d="M81.1287 232.332H212.636C215.735 232.332 218.7 229.811 219.242 226.711L235.056 136.476C235.327 134.926 234.969 133.469 234.049 132.372C233.147 131.296 231.812 130.703 230.292 130.703H98.7851C95.6844 130.703 92.7207 133.225 92.1771 136.325L76.3606 226.56C76.0895 228.109 76.4462 229.567 77.3674 230.664C78.2742 231.74 79.6087 232.332 81.1287 232.332ZM230.292 131.582C231.549 131.582 232.646 132.062 233.38 132.937C234.132 133.834 234.422 135.044 234.196 136.329L218.383 226.56C217.909 229.261 215.331 231.458 212.636 231.458H81.1287C79.8706 231.458 78.7743 230.976 78.0399 230.102C77.2884 229.206 76.9989 227.994 77.2253 226.711L93.0378 136.476C93.5116 133.775 96.0898 131.578 98.7851 131.578L230.292 131.582Z" fill="black"/>
<path d="M212.635 228.852C214.048 228.852 215.566 227.546 215.817 226.11L231.63 135.875C231.72 135.356 231.63 134.907 231.385 134.61C231.09 134.257 230.627 134.184 230.291 134.184H98.7842C97.3694 134.184 95.8533 135.49 95.6006 136.926L79.7814 227.161C79.6906 227.681 79.7814 228.131 80.0262 228.427C80.3223 228.779 80.7856 228.852 81.1212 228.852H212.635Z" fill="#0054FF"/>
<path d="M159.398 232.299H213.084C214.112 232.318 215.092 232.74 215.813 233.474C216.534 234.209 216.938 235.198 216.938 236.227C216.938 237.257 216.534 238.245 215.813 238.98C215.092 239.714 214.112 240.137 213.084 240.156H157.795C155.631 240.156 159.398 232.299 159.398 232.299Z" fill="#99B9FF"/>
<path d="M157.794 240.593H213.082C214.226 240.573 215.316 240.104 216.118 239.287C216.92 238.471 217.369 237.372 217.369 236.227C217.369 235.082 216.92 233.983 216.118 233.166C215.316 232.35 214.226 231.881 213.082 231.861H159.123L159.005 232.109C158.489 233.184 155.967 238.618 156.912 240.121C157.005 240.27 157.136 240.392 157.29 240.475C157.445 240.557 157.619 240.598 157.794 240.593ZM213.082 232.739C213.991 232.764 214.853 233.142 215.487 233.794C216.121 234.446 216.475 235.319 216.475 236.229C216.475 237.138 216.121 238.012 215.487 238.664C214.853 239.316 213.991 239.694 213.082 239.719H157.794C157.689 239.719 157.669 239.688 157.649 239.657C157.208 238.954 158.339 235.574 159.673 232.737L213.082 232.739Z" fill="black"/>
<path d="M50.6665 232.298H177.395C177.916 232.288 178.435 232.383 178.919 232.576C179.404 232.769 179.845 233.057 180.217 233.422C180.589 233.788 180.885 234.224 181.087 234.706C181.289 235.187 181.393 235.704 181.393 236.226C181.393 236.748 181.289 237.265 181.087 237.746C180.885 238.227 180.589 238.664 180.217 239.029C179.845 239.395 179.404 239.683 178.919 239.876C178.435 240.069 177.916 240.164 177.395 240.154H50.6665C49.638 240.135 48.6579 239.713 47.9371 238.979C47.2164 238.244 46.8126 237.255 46.8126 236.226C46.8126 235.196 47.2164 234.208 47.9371 233.473C48.6579 232.739 49.638 232.316 50.6665 232.298Z" fill="white"/>
<path d="M50.6671 240.591H177.395C177.975 240.601 178.55 240.496 179.088 240.281C179.626 240.066 180.116 239.746 180.529 239.34C180.942 238.933 181.271 238.449 181.495 237.914C181.719 237.379 181.834 236.805 181.834 236.226C181.834 235.646 181.719 235.072 181.495 234.537C181.271 234.003 180.942 233.518 180.529 233.112C180.116 232.705 179.626 232.385 179.088 232.17C178.55 231.955 177.975 231.85 177.395 231.86H50.6671C49.5234 231.88 48.4331 232.349 47.6313 233.165C46.8295 233.982 46.3801 235.081 46.3801 236.226C46.3801 237.371 46.8295 238.47 47.6313 239.286C48.4331 240.103 49.5234 240.571 50.6671 240.591ZM177.395 232.737C177.862 232.724 178.325 232.805 178.76 232.975C179.194 233.145 179.59 233.4 179.924 233.725C180.258 234.05 180.524 234.439 180.705 234.869C180.887 235.299 180.98 235.761 180.98 236.228C180.98 236.694 180.887 237.156 180.705 237.586C180.524 238.016 180.258 238.405 179.924 238.73C179.59 239.056 179.194 239.311 178.76 239.48C178.325 239.65 177.862 239.731 177.395 239.718H50.6671C49.7588 239.693 48.896 239.314 48.2623 238.663C47.6286 238.011 47.274 237.137 47.274 236.228C47.274 235.318 47.6286 234.445 48.2623 233.793C48.896 233.141 49.7588 232.762 50.6671 232.737H177.395Z" fill="black"/>
<path d="M141.977 81.2422L166.988 81.3752L177.668 92.8448L154.152 100.717L141.977 81.2422Z" fill="black"/>
<path d="M134.662 211.349C139.784 214.611 147.047 212.374 150.85 206.364L197.965 131.946L179.492 120.186L132.29 194.735C128.521 200.694 129.579 208.116 134.662 211.349Z" fill="#0054FF"/>
<path d="M139.916 213.283C140.763 213.282 141.606 213.187 142.432 213C145.936 212.21 149.136 209.882 151.214 206.596L198.33 132.178C198.392 132.081 198.413 131.963 198.388 131.85C198.364 131.736 198.295 131.638 198.198 131.575L179.726 119.814C179.628 119.752 179.51 119.732 179.397 119.756C179.284 119.781 179.186 119.849 179.123 119.946L131.921 194.496C128.036 200.638 129.157 208.36 134.421 211.712C136.065 212.75 137.972 213.295 139.916 213.283ZM197.361 132.076L150.476 206.131C148.52 209.223 145.52 211.417 142.243 212.151C139.611 212.739 137.001 212.324 134.892 210.982C130.034 207.888 129.031 200.709 132.655 194.971L179.626 120.781L197.361 132.076Z" fill="black"/>
<path d="M128.581 71.4478L183.621 99.5093L205.994 116.72L215.601 129.039L215.668 129.138C217.511 131.246 217.461 136.741 215.45 142.623C213.461 148.442 210.124 152.765 207.389 153.397L207.48 153.427L193.096 157.189L165.098 156.914L103.948 144.832L33.6598 168.013L33.1531 168.104C50.8345 162.06 71.6653 134.158 84.2982 97.1938C96.9154 60.2746 97.5089 25.5656 87.2304 10.0327L87.2436 10.0234L128.059 70.6707L128.581 71.4478Z" fill="white"/>
<path d="M21.0048 168.46C1.79509 161.867 -1.0368 119.343 14.6796 73.4805C30.396 27.6181 58.7092 -4.21569 77.9189 2.37781C97.1286 8.97132 99.9605 51.4953 84.2441 97.3577C68.5277 143.22 40.2145 175.054 21.0048 168.46Z" fill="#0054FF"/>
<path d="M26.315 169.764C34.7273 169.764 44.4768 163.906 54.3473 152.767C66.3235 139.259 77.1153 119.575 84.7117 97.3313C96.222 63.6509 98.1027 30.6002 89.5022 13.1311C86.641 7.31857 82.7665 3.55289 77.9879 1.93546C70.5034 -0.592114 61.5094 2.4307 51.9797 10.6825C42.7317 18.6907 33.6784 30.9663 25.7978 46.1937C25.7579 46.2949 25.7571 46.4073 25.7956 46.509C25.8341 46.6108 25.9091 46.6945 26.0059 46.7439C26.1028 46.7933 26.2146 46.8047 26.3194 46.7761C26.4243 46.7474 26.5147 46.6806 26.573 46.5888C42.6803 15.4861 63.2295 -2.13052 77.7115 2.76657C82.2625 4.30498 85.9659 7.92182 88.7217 13.5196C97.2249 30.7898 95.3271 63.5772 83.8878 97.0494C69.6492 138.694 44.9493 168.884 26.3111 168.888C24.5798 168.896 22.8591 168.618 21.2179 168.066C16.6669 166.529 12.9622 162.911 10.2076 157.315C1.70452 140.044 3.60229 107.256 15.0416 73.7849C17.4009 66.8642 20.1286 60.0747 23.2131 53.4458C23.242 53.3934 23.2598 53.3356 23.2655 53.276C23.2712 53.2164 23.2645 53.1563 23.246 53.0993C23.2276 53.0424 23.1976 52.9899 23.158 52.945C23.1184 52.9001 23.07 52.8639 23.0158 52.8385C22.9617 52.8131 22.9029 52.7991 22.8431 52.7974C22.7833 52.7957 22.7238 52.8063 22.6682 52.8285C22.6127 52.8507 22.5623 52.8841 22.5202 52.9267C22.4781 52.9692 22.4451 53.0199 22.4234 53.0757C19.3242 59.7312 16.5828 66.5479 14.2111 73.4965C2.7008 107.177 0.820129 140.228 9.41933 157.697C12.2818 163.509 16.155 167.275 20.9336 168.892C22.6679 169.475 24.4857 169.769 26.315 169.764Z" fill="black"/>
<path d="M29.0029 160.013C36.4531 160.013 45.0786 154.83 53.8187 144.974C64.4104 133.032 73.9453 115.626 80.6665 95.9625C90.8436 66.1835 92.5111 36.9551 84.899 21.5078C82.3629 16.3578 78.9293 13.0202 74.6928 11.5885C68.9666 9.6536 62.1283 11.4278 54.9163 16.7253C47.9832 21.8133 40.8857 29.994 34.3856 40.3809C34.3516 40.4295 34.3279 40.4845 34.3158 40.5426C34.3037 40.6006 34.3036 40.6605 34.3154 40.7187C34.3272 40.7768 34.3506 40.8319 34.3844 40.8806C34.4181 40.9294 34.4614 40.9708 34.5116 41.0023C34.5618 41.0337 34.6179 41.0547 34.6765 41.0638C34.735 41.0729 34.7948 41.07 34.8522 41.0552C34.9096 41.0404 34.9634 41.0142 35.0103 40.978C35.0573 40.9417 35.0964 40.8964 35.1252 40.8446C48.4057 19.6058 63.4628 8.71448 74.4112 12.4169C78.4199 13.7709 81.6851 16.9597 84.1133 21.9003C91.6228 37.154 89.9448 66.1163 79.8387 95.6859C67.2663 132.473 45.4537 159.145 29.0055 159.147C27.4779 159.153 25.9596 158.908 24.5111 158.422C9.32629 153.285 5.6913 121.657 16.0672 84.8407C16.096 84.7299 16.0803 84.6122 16.0234 84.5129C15.9665 84.4136 15.8729 84.3406 15.7628 84.3096C15.6527 84.2786 15.5349 84.292 15.4345 84.3469C15.3342 84.4019 15.2594 84.494 15.2262 84.6036C10.1857 102.497 8.27212 119.903 9.83824 133.601C11.4307 147.544 16.5423 156.651 24.2321 159.253C25.7702 159.766 27.3818 160.023 29.0029 160.013Z" fill="black"/>
<path d="M53.0947 109.489C48.6278 107.983 47.9166 98.1166 51.5062 87.4515C55.0958 76.7864 61.6268 69.3613 66.0937 70.8672C70.5605 72.373 71.2717 82.2395 67.6822 92.9047C64.0926 103.57 57.5615 110.995 53.0947 109.489Z" fill="white"/>
<path d="M33.1536 168.537C33.1794 168.539 33.2055 168.539 33.2313 168.537L33.7393 168.446L33.7985 168.431L103.978 145.28L165.016 157.34C165.042 157.345 165.069 157.348 165.096 157.348L193.096 157.627C193.134 157.627 193.173 157.623 193.21 157.614L207.593 153.851C207.665 153.831 207.731 153.794 207.784 153.743C210.655 152.845 213.938 148.407 215.866 142.766C217.928 136.732 217.988 131.155 216.018 128.871L215.965 128.794L206.338 116.452C206.315 116.423 206.289 116.397 206.26 116.375L183.883 99.1636C183.862 99.1476 183.839 99.1331 183.816 99.1201L128.881 71.1114L87.6086 9.77523C87.5444 9.67964 87.445 9.61329 87.3322 9.5906C87.2193 9.56791 87.102 9.59071 87.0059 9.65406C86.9069 9.71917 86.8371 9.82024 86.8111 9.93592C86.7982 9.99246 86.7965 10.051 86.8063 10.1082C86.816 10.1654 86.8368 10.2201 86.8677 10.2692C91.853 17.8031 94.3561 30.3422 93.9152 45.5761C93.4586 61.3909 89.9907 79.1893 83.8868 97.0483C77.7763 114.928 69.6088 131.162 60.2673 143.982C51.268 156.336 41.5896 164.754 33.0128 167.69C32.9151 167.724 32.8324 167.791 32.7795 167.879C32.7266 167.968 32.7068 168.073 32.7237 168.175C32.7406 168.277 32.793 168.37 32.8717 168.437C32.9504 168.504 33.0503 168.541 33.1536 168.541V168.537ZM103.95 144.395C103.906 144.396 103.861 144.403 103.819 144.418L39.43 165.648C46.4933 161.49 53.837 154.301 60.978 144.497C70.3708 131.603 78.5791 115.293 84.7186 97.3315C95.6735 65.2778 97.8463 34.0578 90.8291 16.1185L128.213 71.6935C128.255 71.7547 128.312 71.8045 128.378 71.8384L183.382 99.8814L205.682 117.034L215.26 129.309L215.31 129.384C215.319 129.399 215.329 129.413 215.341 129.426C217.076 131.402 216.948 136.898 215.038 142.483C213.167 147.958 209.906 152.369 207.293 152.971C207.219 152.988 207.15 153.025 207.095 153.078L193.044 156.752L165.144 156.477L104.033 144.403C104.006 144.398 103.978 144.395 103.95 144.395Z" fill="black"/>
<path d="M128.459 71.2661L87.2464 10.0195L87.2332 10.0288C97.5117 25.5617 96.9182 60.2707 84.301 97.1898C71.6667 134.154 50.8373 162.056 33.1559 168.1L33.6626 168.009L103.835 144.871L105.462 144.344C113.606 141.61 123.167 129.03 128.843 112.303C134.663 95.1312 133.742 79.0174 128.976 72.009L128.459 71.2661Z" fill="white"/>
<path d="M33.1544 168.538C33.1802 168.54 33.2062 168.54 33.232 168.538L33.74 168.447L33.7992 168.432L103.971 145.281L105.597 144.754C114.166 141.882 123.672 128.896 129.256 112.438C132.02 104.292 133.424 95.9571 133.316 88.3349C133.218 81.2764 131.804 75.3901 129.337 71.7601L128.819 71.0159L87.6094 9.76937C87.5451 9.67378 87.4458 9.60743 87.3329 9.58474C87.22 9.56205 87.1028 9.58485 87.0066 9.6482C86.9076 9.71331 86.8378 9.81438 86.8118 9.93006C86.7989 9.9866 86.7973 10.0451 86.807 10.1023C86.8167 10.1595 86.8376 10.2142 86.8684 10.2633C91.8537 17.7973 94.3569 30.3364 93.916 45.5703C93.4593 61.3851 89.9915 79.1835 83.8875 97.0424C77.777 114.922 69.6095 131.156 60.268 143.976C51.2687 156.33 41.5904 164.748 33.0135 167.684C32.9158 167.718 32.8332 167.785 32.7802 167.874C32.7273 167.962 32.7075 168.067 32.7244 168.169C32.7413 168.271 32.7937 168.364 32.8724 168.431C32.9511 168.498 33.051 168.535 33.1544 168.535V168.538ZM90.8245 16.1193L128.097 71.5112L128.614 72.254C133.041 78.7659 134.4 94.5715 128.429 112.162C122.929 128.373 113.643 141.139 105.322 143.927L103.7 144.454L39.4254 165.646C46.4888 161.488 53.8324 154.299 60.9734 144.495C70.3662 131.601 78.5746 115.291 84.714 97.3296C95.669 65.2785 97.8418 34.0586 90.8245 16.1193Z" fill="black"/>
<path d="M193.873 157.425C193.91 157.425 193.947 157.421 193.983 157.411L207.591 153.854C207.663 153.835 207.729 153.798 207.782 153.746C210.653 152.848 213.936 148.411 215.864 142.769C217.927 136.736 217.986 131.159 216.016 128.875L215.963 128.797L206.336 116.456C206.263 116.37 206.16 116.316 206.048 116.305C205.936 116.294 205.824 116.326 205.735 116.395C205.646 116.464 205.588 116.565 205.572 116.677C205.555 116.788 205.583 116.901 205.648 116.993L215.255 129.312L215.305 129.387C215.314 129.402 215.325 129.416 215.337 129.429C217.071 131.405 216.943 136.902 215.034 142.486C213.162 147.961 209.901 152.373 207.289 152.974C207.214 152.992 207.146 153.029 207.09 153.081L193.758 156.568C193.656 156.595 193.566 156.658 193.507 156.746C193.448 156.834 193.423 156.941 193.436 157.046C193.45 157.151 193.501 157.248 193.581 157.318C193.66 157.389 193.763 157.427 193.869 157.428L193.873 157.425Z" fill="black"/>
<path d="M192.965 157.135C197.414 156.141 202.742 148.827 205.985 139.34C209.416 129.282 209.105 119.465 205.637 116.467L215.601 129.04L215.668 129.139C217.511 131.246 217.461 136.741 215.45 142.624C213.461 148.443 210.124 152.766 207.389 153.398L207.48 153.428L192.965 157.135Z" fill="#0054FF"/>
<path d="M192.964 157.567C192.996 157.567 193.028 157.564 193.06 157.557C193.171 157.532 193.282 157.504 193.394 157.471L207.595 153.852C207.668 153.834 207.734 153.797 207.788 153.744C210.658 152.846 213.942 148.408 215.87 142.767C217.932 136.733 217.992 131.156 216.021 128.872L215.969 128.795L215.95 128.77L207.212 117.753C206.877 117.145 206.44 116.598 205.921 116.137C205.839 116.064 205.732 116.025 205.623 116.027C205.514 116.03 205.409 116.073 205.33 116.149C205.251 116.225 205.203 116.328 205.197 116.437C205.19 116.546 205.225 116.654 205.294 116.739L206.505 118.267C208.726 122.275 208.428 130.818 205.565 139.195C202.442 148.332 197.387 155.413 193.164 156.627L192.852 156.706C192.749 156.732 192.658 156.795 192.598 156.883C192.538 156.971 192.512 157.078 192.525 157.184C192.538 157.29 192.589 157.387 192.669 157.458C192.749 157.529 192.852 157.568 192.959 157.567H192.964ZM207.102 153.075L196.494 155.78C200.158 152.882 203.864 146.904 206.397 139.477C208.846 132.311 209.456 125.177 208.272 120.49L215.315 129.385C215.324 129.4 215.335 129.414 215.346 129.427C217.081 131.403 216.953 136.899 215.044 142.484C213.172 147.959 209.911 152.37 207.299 152.972C207.224 152.989 207.155 153.024 207.097 153.075H207.102Z" fill="black"/>
<path d="M166.116 156.923L164.932 156.871C171.421 157.24 179.927 146.257 184.91 131.677C189.991 116.801 189.292 102.816 183.62 99.5098L184.368 100.085L205.58 116.418C209.104 119.348 209.439 129.226 205.983 139.336C202.649 149.092 196.987 156.519 192.472 157.171L166.116 156.923Z" fill="white"/>
<path d="M192.468 157.608C192.489 157.61 192.51 157.61 192.531 157.608C197.28 156.923 202.979 149.469 206.392 139.482C209.874 129.294 209.643 119.236 205.855 116.087L185.061 100.076C184.693 99.7141 184.282 99.3991 183.837 99.1378C183.741 99.0829 183.628 99.0664 183.521 99.0916C183.413 99.1168 183.319 99.1819 183.257 99.2737C183.196 99.3656 183.171 99.4773 183.189 99.5865C183.206 99.6957 183.264 99.7942 183.352 99.8622L184.524 100.762C186.476 102.694 187.647 106.349 187.86 111.275C188.117 117.236 186.922 124.431 184.495 131.531C179.547 146.013 171.203 156.688 165.039 156.436H164.952C164.894 156.433 164.837 156.441 164.783 156.46C164.729 156.479 164.679 156.509 164.637 156.547C164.594 156.585 164.56 156.632 164.535 156.683C164.51 156.735 164.496 156.791 164.493 156.849C164.49 156.906 164.498 156.963 164.517 157.017C164.536 157.071 164.566 157.121 164.604 157.164C164.643 157.206 164.689 157.241 164.741 157.266C164.792 157.29 164.848 157.305 164.906 157.308H164.996L166.101 157.362H166.116L192.461 157.608H192.468ZM186.791 102.506L205.31 116.764C208.764 119.635 208.881 129.492 205.566 139.194C202.308 148.705 196.799 156.071 192.438 156.74L168.563 156.517C174.471 153.784 181.055 144.306 185.322 131.82C189.371 119.964 189.782 108.446 186.791 102.506Z" fill="black"/>
<path d="M66.5138 69.78C70.9687 71.2855 71.8268 81.1837 68.0063 91.7392C61.5997 109.44 54.2731 108.556 53.3979 108.382C53.3821 108.382 53.3769 108.401 53.3979 108.409L70.4305 118.376C74.1228 111.054 77.3013 103.484 79.943 95.7209C82.4995 88.271 84.5563 80.6586 86.0996 72.9346L66.5178 69.7734L66.5138 69.78Z" fill="black"/>
<path d="M70.6072 118.987L70.8165 118.573C74.5198 111.233 77.7067 103.643 80.354 95.8582C82.9172 88.3922 84.9789 80.763 86.5251 73.0218L86.6133 72.5779L66.584 69.3496L66.3748 70.1952C67.3763 70.5324 68.1962 71.3556 68.8148 72.6398C70.7402 76.6426 70.2519 84.2582 67.5974 91.5907C61.3053 108.977 54.2709 108.11 53.4878 107.953L53.1259 107.881L52.8495 108.579L53.1746 108.786L70.6072 118.987ZM85.5736 73.297C84.0432 80.8472 82.0209 88.2891 79.5197 95.575C76.9351 103.174 73.8346 110.587 70.2401 117.763L54.9368 108.807C57.7124 108.393 63.4018 105.725 68.4107 91.8857C71.1824 84.2292 71.6469 76.5253 69.5952 72.2605C69.3016 71.6278 68.9113 71.0448 68.4384 70.5324L85.5736 73.297Z" fill="black"/>
<path d="M168.443 140.061C168.642 140.164 175.797 149.75 175.797 149.75L178.896 144.669L172.591 136.859L168.443 140.061Z" fill="white"/>
<path d="M175.798 150.186H175.819C175.89 150.183 175.959 150.163 176.02 150.126C176.082 150.09 176.133 150.039 176.17 149.978L179.269 144.897C179.317 144.82 179.339 144.73 179.333 144.64C179.327 144.55 179.293 144.464 179.237 144.394L172.931 136.587C172.86 136.498 172.756 136.44 172.643 136.427C172.529 136.413 172.415 136.445 172.325 136.514L168.176 139.716C168.118 139.761 168.072 139.82 168.043 139.888C168.013 139.955 168.001 140.029 168.008 140.102C168.013 140.159 168.029 140.215 168.056 140.265C168.083 140.316 168.119 140.361 168.163 140.397C168.558 140.818 172.721 146.359 175.448 150.012C175.489 150.066 175.542 150.11 175.602 150.14C175.663 150.171 175.73 150.186 175.798 150.186ZM178.364 144.703L175.761 148.968C171.318 143.02 169.691 140.901 169.066 140.13L172.521 137.464L178.364 144.703Z" fill="black"/>
<path d="M174.942 144.885C174.383 144.962 173.866 145.224 173.472 145.629C172.796 146.345 172.675 147.427 173.092 148.328C174.134 150.578 177.137 156.736 180.531 160.684C181.732 162.078 183.749 162.01 184.248 159.611C185.068 155.678 184.863 149.06 181.524 142.793C181.336 142.438 181.063 142.136 180.729 141.914C180.395 141.692 180.011 141.557 179.612 141.522C178.838 141.451 178.06 141.46 177.289 141.548C176.909 141.599 176.559 141.783 176.304 142.069C176.048 142.355 175.903 142.723 175.895 143.106L175.877 143.82C175.87 144.079 175.773 144.328 175.602 144.522C175.432 144.717 175.198 144.845 174.942 144.885Z" fill="black"/>
<path d="M181.765 160.441C181.824 160.442 181.882 160.431 181.937 160.408C181.991 160.385 182.041 160.352 182.082 160.309C182.229 160.15 185.635 156.276 180.423 143.527C180.404 143.471 180.373 143.42 180.333 143.377C180.293 143.333 180.244 143.298 180.19 143.274C180.136 143.25 180.078 143.237 180.019 143.236C179.96 143.235 179.901 143.246 179.847 143.269C179.792 143.291 179.742 143.324 179.701 143.366C179.66 143.409 179.627 143.459 179.605 143.514C179.584 143.569 179.574 143.627 179.575 143.686C179.577 143.745 179.591 143.804 179.615 143.857C184.573 155.985 181.471 159.681 181.438 159.717C181.382 159.78 181.345 159.858 181.332 159.942C181.319 160.025 181.33 160.111 181.365 160.188C181.399 160.265 181.455 160.331 181.526 160.377C181.597 160.423 181.68 160.448 181.765 160.448V160.441Z" fill="white"/>
<path d="M176.645 154.694C176.715 154.694 176.785 154.677 176.847 154.645L179.497 153.261C179.6 153.207 179.677 153.115 179.712 153.004C179.747 152.894 179.737 152.774 179.683 152.671C179.629 152.568 179.537 152.491 179.427 152.456C179.316 152.421 179.196 152.431 179.093 152.485L176.443 153.869C176.356 153.915 176.287 153.988 176.247 154.077C176.207 154.166 176.198 154.266 176.221 154.361C176.245 154.456 176.299 154.54 176.376 154.601C176.453 154.661 176.548 154.694 176.645 154.694Z" fill="white"/>
<path d="M175.232 152.812C175.303 152.812 175.373 152.795 175.436 152.762L178.532 151.126C178.631 151.07 178.705 150.978 178.738 150.868C178.77 150.759 178.759 150.641 178.705 150.54C178.652 150.439 178.561 150.363 178.453 150.328C178.344 150.293 178.226 150.302 178.124 150.353L175.028 151.989C174.942 152.034 174.874 152.108 174.835 152.197C174.795 152.286 174.786 152.385 174.81 152.48C174.833 152.574 174.887 152.658 174.964 152.718C175.041 152.779 175.135 152.811 175.232 152.812Z" fill="white"/>
<path d="M176.368 85.0186C178.883 83.7265 184.431 80.755 186.166 82.9902C188.852 86.4529 189.581 95.0564 188.118 97.4181C185.734 101.261 161.007 112.17 161.727 111.496C162.447 110.821 173.222 131.172 176.854 139.23L169.228 143.026C169.228 143.026 142.284 116.187 141.986 111.968C141.459 104.42 159.147 94.6666 164.631 91.1577C165.372 90.6823 171.906 87.3078 176.368 85.0186Z" fill="black"/>
<path d="M185.236 37.2469C186.174 38.9394 184.973 39.6059 185.727 42.9422C186.277 45.3921 187.206 46.2969 186.672 47.5521C186.192 48.6836 184.932 49.1393 184.1 49.4409C180.323 50.8068 176.545 49.03 174.23 47.9381C172.352 47.0556 169.779 45.8438 169.887 44.4951C169.995 43.1463 172.594 43.2306 173.714 40.9546C174.614 39.1238 173.436 38.057 174.401 36.4948C175.649 34.4796 178.765 34.4204 179.27 34.4111C181.268 34.3782 184.079 35.1685 185.236 37.2469Z" fill="black"/>
<path d="M164.291 48.4443L174.479 50.5162C174.569 50.5308 174.661 50.5122 174.738 50.4637C174.816 50.4152 174.873 50.3402 174.899 50.2527C175.496 48.2902 174.333 46.1775 173.998 45.6296C173.972 45.5873 173.938 45.5507 173.897 45.522C173.856 45.4932 173.81 45.473 173.762 45.4623C173.286 45.3589 172.823 45.2025 172.382 44.9961C172.136 44.8767 171.945 44.669 171.845 44.4145C171.745 44.1599 171.745 43.8771 171.844 43.6223C172.174 42.7701 172.524 41.6269 172.731 41.1566C172.757 41.1005 172.767 41.0385 172.762 40.977C172.756 40.9155 172.734 40.8566 172.698 40.8063C172.517 40.56 172.239 40.3782 172.255 39.9949C172.257 39.9232 172.281 39.854 172.323 39.796C172.366 39.738 172.424 39.694 172.492 39.6696C173.739 39.2376 174.634 37.2988 175.453 36.6771C175.847 36.3847 176.111 36.2977 176.553 36.0317C176.626 35.984 176.715 35.9653 176.802 35.979C178.973 36.3491 175.797 39.1665 178.685 40.6074C178.756 40.6414 178.815 40.697 178.853 40.7663C178.89 40.8356 178.905 40.915 178.896 40.9933C178.865 41.2716 178.875 41.5527 178.923 41.8284C178.923 41.8284 178.923 41.8284 178.923 41.8376C178.933 41.9031 178.961 41.9647 179.003 42.0159C179.045 42.0671 179.1 42.106 179.162 42.1286C179.225 42.1512 179.292 42.1567 179.357 42.1444C179.422 42.1321 179.483 42.1026 179.532 42.0589C179.943 41.6927 180.375 41.5729 180.638 41.7111C181.012 41.9074 181.021 42.6134 180.91 43.0428C180.691 43.8963 179.83 44.3243 179.338 44.5035C179.247 44.536 179.173 44.6029 179.131 44.6896C179.09 44.7764 179.084 44.8761 179.115 44.9671C179.5 46.109 180.671 49.6851 180.826 51.3262C180.833 51.4076 180.867 51.4844 180.922 51.5447C180.978 51.6049 181.051 51.6453 181.132 51.6594L183.074 51.9953C185.996 52.4998 189.51 54.1027 191.813 55.9678L194.778 58.2385C195.009 58.4255 196.039 58.9748 195.84 59.1961C190.126 65.5565 178.205 62.2742 173.763 60.5382C169.459 58.8549 164.861 50.3015 163.386 52.1165C162.412 53.3137 164.004 48.3943 164.291 48.4443Z" fill="white"/>
<path d="M185.78 63.382C189.597 63.382 193.495 62.46 196.16 59.4938C196.212 59.4363 196.251 59.3678 196.274 59.2933C196.297 59.2188 196.303 59.1402 196.291 59.0631C196.244 58.7062 195.885 58.4507 195.299 58.0727C195.191 58.0029 195.098 57.9409 195.048 57.9041L192.072 55.6268C189.727 53.7195 186.134 52.0863 183.143 51.57L181.251 51.2381C181.085 49.5943 180.025 46.3054 179.55 44.8908C180.131 44.6682 181.074 44.1611 181.333 43.1522C181.476 42.5964 181.465 41.652 180.841 41.324C180.425 41.1054 179.858 41.2305 179.339 41.6494C179.308 41.4555 179.303 41.2584 179.325 41.0632C179.351 40.8929 179.321 40.7186 179.241 40.5662C179.161 40.4137 179.034 40.2911 178.878 40.2163C177.606 39.5815 177.764 38.7267 177.945 37.7362C178.059 37.125 178.164 36.5508 177.84 36.0832C177.643 35.8 177.327 35.6248 176.874 35.5471C176.684 35.5168 176.489 35.556 176.325 35.6577C176.163 35.7552 176.027 35.8276 175.896 35.8961C175.648 36.0191 175.411 36.1636 175.188 36.3282C174.826 36.6008 174.48 37.0592 174.114 37.5452C173.588 38.2433 172.993 39.0335 172.348 39.2575C172.199 39.3117 172.069 39.4092 171.975 39.5375C171.882 39.6658 171.828 39.8191 171.822 39.9779C171.803 40.4442 172.061 40.734 172.232 40.9263L172.317 41.0237C172.205 41.2872 172.066 41.6941 171.906 42.1604C171.761 42.5845 171.597 43.0653 171.441 43.4657C171.302 43.8236 171.303 44.2208 171.444 44.578C171.585 44.9352 171.855 45.2261 172.201 45.3926C172.664 45.6099 173.149 45.7751 173.648 45.8853C173.912 46.3318 175.007 48.3035 174.504 50.0711L164.386 48.0137H164.373C163.967 47.9439 163.746 48.2587 163.291 49.5416C162.3 52.3339 162.687 52.5513 162.917 52.6816C163.099 52.7831 163.386 52.8134 163.728 52.3971C163.745 52.37 163.768 52.3475 163.795 52.3316C163.823 52.3158 163.854 52.307 163.886 52.3063C164.535 52.3063 166.006 53.9751 167.308 55.4476C169.225 57.6222 171.399 60.0879 173.602 60.9493C174.564 61.3273 180.081 63.382 185.78 63.382ZM195.303 59.133C188.962 65.7542 175.453 60.7372 173.918 60.1366C171.911 59.3463 169.72 56.8675 167.959 54.8681C166.013 52.6593 164.864 51.4093 163.861 51.4317C163.777 51.4332 163.694 51.4443 163.613 51.4646C163.811 50.6546 164.232 49.4033 164.469 48.9252L174.392 50.943C174.587 50.9783 174.789 50.9409 174.959 50.8378C175.128 50.7347 175.254 50.573 175.313 50.3833C175.959 48.2627 174.754 46.0367 174.37 45.4045C174.312 45.3121 174.237 45.2322 174.149 45.1693C174.06 45.1064 173.96 45.0619 173.854 45.0383C173.41 44.9416 172.979 44.7958 172.568 44.6037C172.421 44.5324 172.307 44.4083 172.247 44.2561C172.188 44.104 172.188 43.9351 172.248 43.7831C172.41 43.3656 172.577 42.8769 172.726 42.4462C172.881 41.9918 173.029 41.5624 173.129 41.3346C173.186 41.2074 173.209 41.0672 173.194 40.9284C173.18 40.7896 173.129 40.6571 173.047 40.5443C172.994 40.4732 172.936 40.4126 172.877 40.3415C172.756 40.2032 172.702 40.1373 172.69 40.0583C173.558 39.7303 174.222 38.8491 174.81 38.0694C175.138 37.6348 175.449 37.2225 175.712 37.0249C175.897 36.8881 176.095 36.7682 176.302 36.6667C176.433 36.5942 176.587 36.5165 176.76 36.4125C176.896 36.4259 177.024 36.4853 177.123 36.581C177.237 36.7457 177.16 37.1672 177.085 37.5742C176.904 38.5607 176.629 40.0491 178.453 40.9789C178.425 41.2825 178.437 41.5885 178.488 41.8891C178.507 42.0338 178.566 42.1704 178.658 42.2842C178.749 42.3981 178.87 42.4849 179.007 42.5355C179.143 42.5861 179.292 42.5985 179.435 42.5714C179.578 42.5443 179.712 42.4788 179.821 42.3817C180.142 42.0959 180.385 42.0708 180.433 42.0946C180.51 42.1433 180.587 42.5397 180.487 42.9323C180.317 43.5908 179.6 43.9399 179.188 44.09C178.989 44.1605 178.826 44.3066 178.735 44.4965C178.644 44.6865 178.631 44.9049 178.699 45.1042C179.057 46.1671 180.238 49.7603 180.385 51.3632C180.401 51.5405 180.475 51.7075 180.595 51.8385C180.716 51.9695 180.876 52.057 181.051 52.0876L182.992 52.4235C185.858 52.924 189.279 54.4848 191.534 56.313L194.509 58.5903C194.612 58.668 194.718 58.7406 194.828 58.8076C194.938 58.8774 195.153 59.0184 195.303 59.133Z" fill="black"/>
<path d="M176.916 45.4336C175.993 45.7972 174.973 45.8303 174.029 45.5271L176.916 45.4336Z" fill="white"/>
<path d="M175.328 46.1686C175.934 46.174 176.534 46.0585 177.094 45.8288C177.19 45.7755 177.262 45.6879 177.297 45.5836C177.331 45.4792 177.324 45.3658 177.279 45.266C177.233 45.1662 177.151 45.0874 177.05 45.0452C176.949 45.003 176.835 45.0006 176.732 45.0385C175.908 45.3539 175.001 45.3808 174.159 45.1149C174.104 45.0945 174.046 45.0854 173.987 45.0883C173.928 45.0911 173.87 45.1058 173.817 45.1315C173.764 45.1572 173.717 45.1933 173.679 45.2377C173.64 45.2821 173.611 45.3339 173.592 45.3899C173.574 45.4459 173.567 45.5051 173.573 45.5637C173.578 45.6224 173.595 45.6794 173.623 45.7314C173.65 45.7833 173.688 45.8291 173.734 45.866C173.78 45.9028 173.833 45.9301 173.89 45.946C174.355 46.0954 174.84 46.1705 175.328 46.1686Z" fill="black"/>
<path d="M183.711 36.4197C183.711 36.4197 184.183 32.4604 187.346 33.3837C190.508 34.307 187.632 37.6763 185.289 38.0306C182.946 38.3849 183.711 36.4197 183.711 36.4197Z" fill="black"/>
<path d="M123.545 24.2287L119.527 20.6803C119.392 20.5603 119.22 20.4917 119.039 20.4866C118.859 20.4816 118.683 20.5404 118.541 20.6527C118.382 20.7783 118.279 20.9617 118.255 21.163C118.23 21.3642 118.286 21.5671 118.41 21.7275L119.706 23.4028L118.834 25.8764C118.703 26.2481 118.689 26.6511 118.794 27.031C118.899 27.4109 119.117 27.7494 119.421 28.0009L121.066 29.3642C121.468 29.6974 121.961 29.9015 122.481 29.9496C123.001 29.9978 123.523 29.8879 123.979 29.6342L124.609 29.2838C125.081 29.0214 125.459 28.6181 125.692 28.13C125.924 27.642 125.998 27.0936 125.904 26.5613L125.676 25.2758C125.642 25.0849 125.57 24.903 125.463 24.7411C125.356 24.5792 125.218 24.4408 125.056 24.3344C124.894 24.2279 124.712 24.1557 124.521 24.1222C124.331 24.0886 124.135 24.0944 123.947 24.1391L123.545 24.2287Z" fill="white"/>
<path d="M122.719 30.3932C123.236 30.393 123.744 30.2606 124.195 30.0086L124.824 29.6595C125.377 29.3532 125.82 28.8814 126.091 28.3103C126.363 27.7391 126.449 27.0973 126.337 26.4747L126.11 25.1879C126.065 24.9388 125.97 24.7015 125.83 24.4905C125.69 24.2795 125.509 24.0993 125.298 23.9608C125.086 23.8224 124.848 23.7286 124.599 23.6852C124.35 23.6419 124.095 23.6499 123.849 23.7087L123.664 23.7522L119.819 20.3474C119.594 20.1485 119.303 20.0407 119.003 20.045C118.703 20.0494 118.415 20.1656 118.196 20.371C117.977 20.5763 117.843 20.856 117.819 21.1554C117.795 21.4548 117.883 21.7524 118.067 21.9899L119.219 23.4769L118.429 25.7253C118.269 26.1817 118.252 26.6762 118.381 27.1423C118.51 27.6085 118.779 28.024 119.15 28.3332L120.79 29.6925C121.332 30.1438 122.014 30.3916 122.719 30.3932ZM124.282 24.5293C124.513 24.5301 124.736 24.612 124.913 24.7607C125.09 24.9095 125.209 25.1157 125.249 25.3433L125.477 26.6301C125.554 27.0731 125.492 27.5294 125.298 27.9353C125.105 28.3412 124.789 28.6765 124.396 28.8943L123.767 29.2446C123.388 29.4573 122.953 29.5496 122.521 29.5094C122.088 29.4692 121.678 29.2983 121.344 29.0194L119.703 27.6601C119.469 27.4649 119.3 27.203 119.219 26.9092C119.138 26.6155 119.149 26.304 119.249 26.0164L120.121 23.5428C120.146 23.4741 120.153 23.4003 120.141 23.3282C120.13 23.2561 120.1 23.1881 120.056 23.1305L118.758 21.4551C118.706 21.3899 118.681 21.3076 118.687 21.2246C118.693 21.1415 118.73 21.0637 118.79 21.0067C118.851 20.9496 118.931 20.9175 119.014 20.9166C119.097 20.9158 119.178 20.9462 119.24 21.002L123.255 24.5583C123.308 24.6052 123.372 24.6385 123.441 24.6555C123.509 24.6724 123.581 24.6725 123.65 24.6558L124.054 24.5596C124.128 24.5408 124.205 24.5306 124.282 24.5293Z" fill="black"/>
<path d="M123.545 24.2285L122.159 25.3573C122.159 25.3573 122.698 26.7258 123.635 26.1133L123.545 24.2285Z" fill="white"/>
<path d="M123.158 26.7067C123.413 26.7023 123.662 26.6216 123.871 26.4749C123.962 26.4089 124.023 26.3105 124.044 26.2002C124.064 26.0898 124.041 25.9759 123.98 25.882C123.918 25.7881 123.823 25.7214 123.714 25.6957C123.605 25.67 123.49 25.6873 123.393 25.7439C123.216 25.8598 123.121 25.8295 123.085 25.819C122.927 25.7438 122.796 25.6208 122.71 25.4673L123.824 24.5651C123.911 24.4912 123.967 24.3858 123.978 24.2715C123.988 24.1573 123.954 24.0433 123.881 23.9543C123.809 23.8653 123.705 23.8083 123.591 23.7956C123.477 23.783 123.362 23.8157 123.272 23.8867L121.882 25.0155C121.81 25.074 121.759 25.1539 121.735 25.2436C121.711 25.3333 121.717 25.4283 121.751 25.5147C121.788 25.6082 122.13 26.4367 122.819 26.6514C122.929 26.6874 123.043 26.706 123.158 26.7067Z" fill="black"/>
<path d="M121.19 26.4367C121.297 26.4362 121.399 26.3974 121.48 26.3274C121.566 26.2504 121.619 26.1421 121.626 26.0264C121.633 25.9106 121.594 25.7967 121.518 25.7096L119.807 23.7721C119.73 23.6848 119.622 23.6315 119.506 23.624C119.39 23.6164 119.276 23.6553 119.189 23.732C119.102 23.8086 119.048 23.9169 119.041 24.0328C119.033 24.1488 119.072 24.263 119.149 24.3503L120.86 26.2892C120.901 26.3359 120.952 26.3732 121.009 26.3986C121.066 26.4241 121.128 26.437 121.19 26.4367Z" fill="black"/>
<path d="M120.431 27.627C120.516 27.6268 120.598 27.6022 120.669 27.5561C120.74 27.51 120.795 27.4444 120.83 27.3672C120.864 27.2901 120.875 27.2046 120.862 27.1213C120.849 27.0379 120.812 26.9601 120.755 26.8974L119.38 25.3682C119.301 25.2873 119.194 25.2402 119.081 25.2366C118.968 25.2329 118.859 25.2731 118.775 25.3487C118.691 25.4243 118.64 25.5294 118.631 25.642C118.623 25.7547 118.659 25.8661 118.731 25.953L120.106 27.4822C120.147 27.5278 120.197 27.5644 120.253 27.5893C120.309 27.6143 120.37 27.6272 120.431 27.627Z" fill="black"/>
<path d="M186.53 52.4145L184.835 51.8481C184.835 51.8481 175.051 58.7538 170.24 49.1783L167.901 48.6172L163.828 62.0638L187.568 67.2664L186.53 52.4145Z" fill="#99B9FF"/>
<path d="M123.68 31.1327L128.496 29.373C135.713 37.0546 142.609 40.8584 147.803 42.9145C154.199 45.446 165.135 48.1474 165.135 48.1474C165.135 48.1474 165.346 53.2658 174.055 58.7292C182.765 64.1927 195.442 57.8073 195.442 57.8073C195.442 57.8073 210.324 69.4138 211.485 76.7344C213.411 88.8968 192.402 95.7208 192.402 95.7208L191.358 92.453C191.358 92.453 199.61 85.0982 197.439 78.1069C195.269 71.1155 190.344 68.2073 190.344 68.2073C189.285 76.4328 190.325 85.9069 190.325 85.9069C176.434 90.1217 164.103 86.0531 158.631 83.6559C157.724 83.2571 156.968 82.5786 156.474 81.7194C155.98 80.8602 155.773 79.8653 155.883 78.88C156.723 71.267 159.256 61.5914 159.256 61.5914C155.722 61.5798 152.211 61.0017 148.859 59.8791C131.188 53.9151 124.738 34.4901 123.68 31.1327Z" fill="#407FFF"/>
<path d="M174.19 82.8143C174.293 82.8139 174.392 82.7773 174.47 82.7111C174.548 82.6448 174.601 82.5531 174.619 82.452C174.636 82.3509 174.618 82.2468 174.566 82.1579C174.515 82.0691 174.434 82.0012 174.337 81.9661C163.892 78.2176 161.851 66.6571 161.835 66.5412C161.816 66.427 161.752 66.3249 161.658 66.2575C161.564 66.19 161.447 66.1628 161.333 66.1816C161.219 66.2005 161.117 66.2639 161.05 66.3581C160.982 66.4522 160.955 66.5692 160.974 66.6834C160.994 66.8046 163.11 78.8643 174.047 82.788C174.092 82.8052 174.141 82.8141 174.19 82.8143Z" fill="#99B9FF"/>
<path d="M172.231 88.6733L183.673 72.8243C183.742 72.7283 183.829 72.647 183.93 72.5849C184.031 72.5228 184.143 72.4812 184.259 72.4625C184.376 72.4438 184.495 72.4483 184.61 72.4758C184.725 72.5033 184.834 72.5532 184.93 72.6227L205.633 87.5893C205.826 87.7294 205.956 87.9408 205.994 88.1769C206.032 88.413 205.975 88.6546 205.835 88.8485L194.393 104.697C194.253 104.891 194.042 105.021 193.806 105.059C193.57 105.097 193.329 105.039 193.135 104.899L172.433 89.9325C172.337 89.8632 172.256 89.7756 172.194 89.6748C172.132 89.574 172.09 89.4619 172.071 89.3449C172.052 89.228 172.057 89.1085 172.084 88.9932C172.112 88.878 172.161 88.7692 172.231 88.6733Z" fill="white"/>
<path d="M193.66 105.511C193.872 105.511 194.081 105.461 194.27 105.365C194.459 105.269 194.623 105.129 194.747 104.956L206.189 89.1075C206.396 88.8194 206.481 88.461 206.424 88.1106C206.368 87.7603 206.175 87.4467 205.888 87.2385L185.186 72.2693C184.898 72.0621 184.539 71.9778 184.189 72.0351C183.839 72.0924 183.526 72.2866 183.318 72.5749L171.877 88.4239C171.67 88.7106 171.585 89.0672 171.64 89.4162C171.695 89.7651 171.886 90.0783 172.17 90.2876L192.88 105.257C193.106 105.422 193.38 105.511 193.66 105.511ZM184.403 72.8896C184.5 72.89 184.595 72.9203 184.674 72.9766L205.376 87.9471C205.425 87.9827 205.467 88.0277 205.499 88.0795C205.531 88.1314 205.553 88.189 205.563 88.2492C205.573 88.3094 205.57 88.371 205.556 88.4303C205.542 88.4897 205.517 88.5457 205.481 88.5951L194.039 104.449C194.004 104.499 193.959 104.541 193.907 104.573C193.855 104.606 193.797 104.627 193.736 104.636C193.676 104.646 193.615 104.644 193.555 104.629C193.496 104.615 193.44 104.589 193.39 104.553L172.689 89.579C172.639 89.5433 172.597 89.4982 172.565 89.4464C172.533 89.3945 172.512 89.3368 172.502 89.2766C172.493 89.2164 172.495 89.1549 172.509 89.0956C172.523 89.0363 172.549 88.9803 172.585 88.931L184.026 73.0819C184.069 73.0222 184.126 72.9736 184.191 72.9402C184.257 72.9067 184.329 72.8894 184.403 72.8896Z" fill="black"/>
<path d="M183.672 74.9732L203.27 89.1445L193.865 102.171L174.267 88.0001L183.672 74.9732Z" fill="#99B9FF"/>
<path d="M174.495 83.6796L179.645 76.546C179.816 76.3093 180.074 76.1503 180.362 76.1039C180.65 76.0574 180.945 76.1274 181.182 76.2984L182.812 77.4838L176.374 86.4034L174.744 85.218C174.507 85.0469 174.348 84.7888 174.301 84.5003C174.255 84.2119 174.324 83.9167 174.495 83.6796Z" fill="white"/>
<path d="M174.12 77.9743C174.488 77.468 175.043 77.1283 175.661 77.0296C176.279 76.9309 176.911 77.0811 177.419 77.4475L179.334 78.8331L176.57 82.6659L174.655 81.2816C174.146 80.9139 173.804 80.359 173.704 79.7389C173.603 79.1188 173.753 78.4841 174.12 77.9743ZM175.783 79.1769C175.837 79.1018 175.867 79.0126 175.869 78.9205C175.872 78.8284 175.848 78.7375 175.799 78.6592C175.751 78.581 175.68 78.5188 175.596 78.4805C175.513 78.4423 175.42 78.4296 175.329 78.4442C175.238 78.4587 175.153 78.4999 175.086 78.5624C175.018 78.6249 174.97 78.706 174.948 78.7955C174.927 78.885 174.932 78.979 174.963 79.0656C174.995 79.1522 175.051 79.2275 175.125 79.2822C175.175 79.3192 175.231 79.3459 175.291 79.3609C175.351 79.3758 175.414 79.3788 175.475 79.3695C175.536 79.3601 175.595 79.3388 175.648 79.3066C175.701 79.2745 175.747 79.2322 175.783 79.1821V79.1769Z" fill="white"/>
<path d="M178.037 88.8528L185.662 78.291L186.537 78.9236L178.912 89.4854L178.037 88.8528Z" fill="white"/>
<path d="M179.832 90.1497L187.457 79.5879L188.332 80.2204L180.706 90.7822L179.832 90.1497Z" fill="white"/>
<path d="M181.627 91.4466L189.252 80.8848L190.127 81.5173L182.501 92.0791L181.627 91.4466Z" fill="white"/>
<path d="M192.939 95.2561C192.939 95.2561 189.508 100.593 186.787 100.343C184.065 100.093 184.353 98.1037 184.353 98.1037L188.046 95.3298C188.046 95.3298 184.409 96.423 184.625 95.0901C184.738 94.4052 185.064 94.3894 185.906 94.2445C188.087 93.8704 192.108 93.0156 192.108 93.0156L192.939 95.2561Z" fill="white"/>
<path d="M186.969 100.787C189.864 100.787 193.165 95.7126 193.307 95.4913C193.345 95.4336 193.369 95.3677 193.376 95.299C193.384 95.2303 193.375 95.1608 193.35 95.0962L192.521 92.857C192.485 92.7588 192.414 92.6769 192.322 92.6264C192.231 92.5759 192.124 92.56 192.021 92.5818C191.982 92.5897 187.985 93.4392 185.836 93.8067L185.704 93.8291C184.951 93.9608 184.356 94.057 184.198 95.0145C184.167 95.1683 184.176 95.3278 184.225 95.4769C184.274 95.626 184.362 95.7596 184.479 95.8641C184.842 96.1828 185.532 96.2223 186.219 96.1525L184.092 97.7502C184 97.8195 183.939 97.9221 183.922 98.036C183.863 98.6286 184.034 99.2211 184.398 99.6916C184.883 100.308 185.674 100.67 186.748 100.769C186.82 100.784 186.895 100.787 186.969 100.787ZM192.454 95.2002C191.433 96.7281 188.757 100.087 186.828 99.9063C186.008 99.8313 185.425 99.5836 185.092 99.1701C184.903 98.9304 184.795 98.6372 184.783 98.3324L188.31 95.6823C188.392 95.6205 188.449 95.5319 188.472 95.4321C188.495 95.3323 188.482 95.2275 188.436 95.1361C188.39 95.0446 188.313 94.9724 188.219 94.9318C188.125 94.8913 188.02 94.8852 187.922 94.9144C186.528 95.3333 185.239 95.4189 185.055 95.2147C185.055 95.2147 185.055 95.1976 185.055 95.1647C185.11 94.8314 185.11 94.8262 185.845 94.7023L185.976 94.6786C187.754 94.3744 190.779 93.7448 191.825 93.5248L192.454 95.2002Z" fill="black"/>
<path d="M188.85 98.1738C188.85 98.1738 188.023 99.1195 186.113 100.233L188.85 98.1738Z" fill="white"/>
<path d="M186.113 100.668C186.191 100.669 186.267 100.648 186.333 100.609C188.282 99.4724 189.142 98.5016 189.177 98.4595C189.215 98.4163 189.244 98.366 189.262 98.3116C189.281 98.2572 189.288 98.1997 189.284 98.1424C189.28 98.0851 189.265 98.0291 189.24 97.9776C189.214 97.9261 189.179 97.8802 189.136 97.8424C189.093 97.8046 189.042 97.7757 188.988 97.7573C188.934 97.739 188.876 97.7315 188.819 97.7354C188.762 97.7392 188.706 97.7543 188.654 97.7798C188.603 97.8053 188.557 97.8407 188.519 97.8839C188.502 97.9037 187.693 98.8059 185.887 99.8596C185.804 99.9076 185.738 99.9818 185.702 100.071C185.665 100.16 185.658 100.258 185.683 100.351C185.709 100.444 185.764 100.526 185.84 100.585C185.917 100.643 186.011 100.674 186.107 100.674L186.113 100.668Z" fill="black"/>
<path d="M188.006 97.3906C188.006 97.3906 186.887 98.414 184.897 99.6034L188.006 97.3906Z" fill="white"/>
<path d="M184.899 100.04C184.977 100.04 185.055 100.019 185.122 99.9782C187.128 98.7796 188.255 97.7562 188.302 97.7128C188.386 97.634 188.435 97.5255 188.439 97.4107C188.443 97.2959 188.402 97.184 188.325 97.0993C188.248 97.0145 188.14 96.9636 188.025 96.9576C187.911 96.9517 187.798 96.9911 187.712 97.0674C186.767 97.8776 185.749 98.6006 184.674 99.2275C184.592 99.2765 184.528 99.3512 184.492 99.44C184.457 99.5287 184.451 99.6268 184.476 99.719C184.502 99.8112 184.557 99.8926 184.633 99.9506C184.709 100.009 184.802 100.04 184.897 100.04H184.899Z" fill="black"/>
<path d="M197.439 78.1067C197.152 77.1893 196.8 76.2936 196.386 75.4264C196.591 75.2587 196.796 75.0901 196.999 74.9206C198.473 73.6825 199.938 72.4483 201.474 71.2814C203.01 70.1144 204.576 68.9435 206.142 67.7949C208.821 70.8243 211.064 74.0631 211.486 76.729C213.413 88.8914 192.403 95.7154 192.403 95.7154L191.36 92.4476C191.36 92.4476 199.61 85.0981 197.439 78.1067Z" fill="#407FFF"/>
<path d="M95.4297 214.635L94.1176 223.853H91.2788L91.1196 214.786L95.4297 214.635Z" fill="white"/>
<path d="M91.2788 224.291H94.1175C94.2229 224.291 94.3247 224.253 94.4042 224.184C94.4837 224.115 94.5356 224.019 94.5505 223.915L95.8666 214.695C95.8758 214.631 95.8709 214.567 95.8522 214.505C95.8336 214.444 95.8016 214.388 95.7587 214.34C95.7159 214.293 95.6634 214.256 95.6048 214.231C95.5462 214.206 95.4828 214.194 95.4191 214.195L91.109 214.348C90.9946 214.352 90.8863 214.401 90.8075 214.484C90.7287 214.567 90.6857 214.678 90.6878 214.792L90.8458 223.859C90.8475 223.974 90.8937 224.083 90.9746 224.163C91.0554 224.244 91.1646 224.29 91.2788 224.291ZM93.7385 223.417H91.7078L91.5644 215.208L94.9177 215.089L93.7385 223.417Z" fill="black"/>
<path d="M94.2319 232.667C92.1742 232.88 90.0971 232.81 88.0582 232.46C87.8574 232.427 87.6659 232.351 87.4963 232.238C87.3266 232.126 87.1826 231.978 87.0737 231.806C86.9648 231.634 86.8934 231.441 86.8641 231.239C86.8349 231.038 86.8485 230.832 86.904 230.636C87.5541 228.323 88.9544 223.941 90.7206 221.943L91.1049 223.069L91.7208 222.042C91.7625 221.972 91.8199 221.913 91.8885 221.87C91.9571 221.827 92.0349 221.8 92.1156 221.793L93.3949 221.674C93.5239 221.662 93.6529 221.699 93.756 221.777C93.8592 221.856 93.929 221.971 93.9516 222.098L94.1213 223.069L94.6083 221.818L95.5177 231.077C95.5571 231.458 95.4439 231.84 95.2029 232.138C94.9619 232.436 94.6128 232.626 94.2319 232.667Z" fill="white"/>
<path d="M91.9119 233.225C92.7031 233.226 93.4939 233.185 94.2808 233.101C94.7741 233.046 95.2259 232.798 95.5386 232.413C95.8513 232.027 95.9999 231.533 95.9522 231.039L95.0415 221.778C95.032 221.683 94.9917 221.594 94.9268 221.524C94.8619 221.454 94.7758 221.407 94.6818 221.391C94.5879 221.374 94.4911 221.389 94.4063 221.433C94.3216 221.477 94.2534 221.547 94.2124 221.633C94.1158 221.498 93.9859 221.391 93.8355 221.322C93.6851 221.253 93.5193 221.224 93.3543 221.238L92.0751 221.358C91.9262 221.372 91.7826 221.42 91.656 221.5C91.5294 221.58 91.4232 221.688 91.346 221.816L91.2143 222.037L91.1341 221.802C91.1091 221.729 91.0657 221.665 91.0082 221.615C90.9507 221.564 90.881 221.53 90.8061 221.515C90.7313 221.5 90.6538 221.505 90.5813 221.529C90.5089 221.553 90.444 221.596 90.3931 221.653C88.5848 223.698 87.1688 228.083 86.4857 230.513C86.4149 230.768 86.3983 231.035 86.4369 231.296C86.4755 231.558 86.5685 231.809 86.7099 232.032C86.8513 232.255 87.0379 232.447 87.2577 232.593C87.4775 232.74 87.7256 232.839 87.986 232.884C89.2826 233.109 90.596 233.223 91.9119 233.225ZM94.3255 223.457L95.0796 231.124C95.1055 231.39 95.0262 231.654 94.8588 231.862C94.6914 232.069 94.4493 232.202 94.1847 232.232C92.167 232.441 90.13 232.373 88.1308 232.029C87.9906 232.005 87.857 231.952 87.7386 231.873C87.6203 231.794 87.5197 231.692 87.4436 231.571C87.3674 231.451 87.3173 231.316 87.2965 231.176C87.2757 231.035 87.2846 230.891 87.3227 230.754C87.9215 228.623 89.0942 224.951 90.5642 222.851L90.6879 223.214C90.7141 223.293 90.7627 223.364 90.8279 223.417C90.8931 223.469 90.9722 223.502 91.0555 223.511C91.1389 223.52 91.2231 223.504 91.2979 223.467C91.3728 223.429 91.4352 223.37 91.4776 223.298L92.0948 222.269C92.101 222.259 92.1096 222.25 92.1199 222.244C92.1302 222.237 92.1419 222.233 92.154 222.232L93.4332 222.112C93.4529 222.111 93.4724 222.117 93.4881 222.129C93.5038 222.141 93.5147 222.158 93.5188 222.177L93.6899 223.149C93.7062 223.243 93.7529 223.329 93.8228 223.394C93.8927 223.458 93.982 223.498 94.0768 223.507C94.1629 223.516 94.2496 223.499 94.3255 223.457Z" fill="black"/>
<path d="M91.0046 231.652C92.2071 231.654 93.4061 231.522 94.5791 231.256C94.6359 231.244 94.6895 231.22 94.7369 231.186C94.7843 231.152 94.8245 231.109 94.855 231.059C94.8855 231.01 94.9059 230.954 94.9148 230.897C94.9237 230.839 94.921 230.78 94.9069 230.724C94.8928 230.667 94.8675 230.614 94.8325 230.567C94.7976 230.521 94.7537 230.482 94.7034 230.452C94.6531 230.423 94.5975 230.404 94.5397 230.396C94.482 230.389 94.4233 230.393 94.3672 230.408C94.3343 230.416 91.0322 231.222 87.9421 230.408C87.8316 230.383 87.7157 230.402 87.6189 230.461C87.5221 230.52 87.4519 230.614 87.4232 230.724C87.3945 230.834 87.4095 230.95 87.4651 231.049C87.5207 231.148 87.6124 231.221 87.721 231.254C88.7942 231.525 89.8976 231.659 91.0046 231.652Z" fill="black"/>
<path d="M89.857 228.046H92.9024C92.9617 228.049 93.021 228.04 93.0768 228.02C93.1326 227.999 93.1836 227.968 93.2267 227.927C93.2698 227.886 93.3042 227.837 93.3277 227.782C93.3512 227.727 93.3633 227.669 93.3633 227.609C93.3633 227.55 93.3512 227.491 93.3277 227.436C93.3042 227.382 93.2698 227.332 93.2267 227.292C93.1836 227.251 93.1326 227.219 93.0768 227.199C93.021 227.178 92.9617 227.169 92.9024 227.173H89.857C89.7454 227.179 89.6405 227.227 89.5636 227.309C89.4868 227.39 89.444 227.497 89.444 227.609C89.444 227.721 89.4868 227.829 89.5636 227.91C89.6405 227.991 89.7454 228.04 89.857 228.046Z" fill="black"/>
<path d="M119.523 215.458L120.703 226.202L125.219 227.148L124.944 214.551L119.523 215.458Z" fill="white"/>
<path d="M125.219 227.585C125.321 227.586 125.42 227.55 125.498 227.485C125.549 227.443 125.589 227.39 125.617 227.33C125.644 227.27 125.657 227.205 125.656 227.139L125.381 214.541C125.38 214.478 125.365 214.416 125.338 214.36C125.31 214.304 125.271 214.254 125.223 214.214C125.175 214.174 125.119 214.145 125.058 214.128C124.998 214.112 124.935 214.109 124.873 214.119L119.451 215.027C119.341 215.045 119.242 215.105 119.174 215.194C119.107 215.283 119.076 215.395 119.089 215.506L120.273 226.25C120.284 226.341 120.323 226.428 120.385 226.496C120.446 226.564 120.528 226.611 120.618 226.631L125.134 227.576C125.162 227.582 125.19 227.585 125.219 227.585ZM124.519 215.065L124.77 226.608L121.104 225.839L120.002 215.821L124.519 215.065Z" fill="black"/>
<path d="M118.798 231.834C118.798 231.834 118.219 226.665 119.837 224.304L123.45 225.591V224.819C123.445 224.705 123.484 224.593 123.559 224.506C123.635 224.419 123.74 224.364 123.854 224.353L125.868 224.237C126.624 224.195 127.378 224.35 128.056 224.688C130.469 225.873 136.024 228.935 135.847 231.87C135.846 231.87 131.475 232.955 118.798 231.834Z" fill="white"/>
<path d="M129.044 232.782C133.905 232.782 135.835 232.322 135.954 232.293C136.044 232.271 136.124 232.221 136.184 232.15C136.243 232.079 136.278 231.991 136.284 231.898C136.47 228.816 131.329 225.813 128.25 224.297C127.504 223.928 126.675 223.757 125.844 223.802L123.83 223.918C123.605 223.936 123.395 224.04 123.243 224.208C123.092 224.376 123.01 224.595 123.014 224.821V224.966L119.987 223.886C119.896 223.854 119.798 223.853 119.706 223.883C119.614 223.912 119.535 223.972 119.481 224.051C117.791 226.518 118.342 231.66 118.367 231.877C118.378 231.978 118.423 232.071 118.495 232.142C118.567 232.212 118.662 232.256 118.762 232.264C123.109 232.654 126.483 232.782 129.044 232.782ZM135.402 231.511C134.169 231.722 129.466 232.315 119.2 231.431C119.113 230.303 118.945 226.772 120.024 224.833L123.305 226.003C123.37 226.026 123.44 226.033 123.509 226.023C123.578 226.014 123.643 225.989 123.7 225.949C123.757 225.908 123.804 225.854 123.836 225.792C123.868 225.73 123.885 225.661 123.885 225.591V224.819C123.884 224.806 123.888 224.792 123.896 224.782L125.891 224.673C126.573 224.636 127.253 224.776 127.865 225.08C132.419 227.32 135.189 229.693 135.402 231.511Z" fill="black"/>
<path d="M124.95 231.189C128.165 231.196 131.375 230.918 134.54 230.356C134.654 230.333 134.754 230.266 134.818 230.169C134.882 230.073 134.905 229.954 134.882 229.841C134.859 229.727 134.792 229.627 134.695 229.563C134.598 229.499 134.48 229.476 134.367 229.499C134.297 229.513 127.268 230.908 119.619 230.019C119.504 230.006 119.388 230.039 119.297 230.111C119.206 230.183 119.147 230.288 119.134 230.403C119.12 230.518 119.153 230.634 119.225 230.725C119.297 230.816 119.402 230.875 119.517 230.889C121.321 231.092 123.135 231.193 124.95 231.189Z" fill="black"/>
<path d="M129.243 228.461C129.335 228.461 129.425 228.431 129.499 228.377C129.573 228.322 129.628 228.246 129.657 228.158C129.685 228.071 129.685 227.977 129.656 227.889C129.628 227.802 129.573 227.725 129.499 227.671L126.022 225.168C125.975 225.135 125.922 225.111 125.866 225.098C125.811 225.084 125.753 225.082 125.696 225.092C125.639 225.101 125.585 225.121 125.536 225.151C125.488 225.182 125.445 225.221 125.412 225.268C125.378 225.314 125.354 225.367 125.341 225.423C125.328 225.479 125.326 225.537 125.335 225.594C125.344 225.65 125.364 225.705 125.395 225.753C125.425 225.802 125.464 225.845 125.511 225.878L128.988 228.381C129.063 228.433 129.152 228.462 129.243 228.461Z" fill="black"/>
<path d="M120.932 145.746C120.932 145.746 127.411 186.959 126.032 216.621L118.829 216.807C118.829 216.807 111.104 174.977 107.248 167.495C107.248 167.495 96.777 205.632 96.3743 216.492C96.3743 216.492 91.7141 216.961 89.8572 216.292C88.8609 205.815 88.5595 196.904 88.5095 190.097C88.3674 170.612 90.2283 161.763 91.2469 157.564C92.184 153.708 93.1894 150.583 93.9225 148.457L96.3743 141.459L120.932 145.746Z" fill="#0054FF"/>
<path d="M118.827 217.243H118.839L126.042 217.056C126.152 217.053 126.258 217.009 126.337 216.932C126.416 216.854 126.462 216.75 126.467 216.64C127.833 187.268 121.428 146.09 121.363 145.678C121.349 145.588 121.307 145.504 121.243 145.439C121.179 145.374 121.097 145.33 121.007 145.315L96.4502 141.022C96.3482 141.004 96.2433 141.024 96.1541 141.076C96.0649 141.129 95.9973 141.211 95.9633 141.309L93.5114 148.306C92.477 151.292 91.5729 154.365 90.824 157.455C89.579 162.582 87.9379 171.548 88.0748 190.093C88.1379 198.762 88.592 207.59 89.4237 216.328C89.4316 216.41 89.4627 216.489 89.5135 216.554C89.5643 216.62 89.6327 216.67 89.7106 216.698C91.6387 217.392 96.2239 216.94 96.4226 216.922C96.5279 216.911 96.626 216.863 96.6986 216.786C96.7712 216.709 96.8134 216.609 96.8174 216.503C97.1754 206.888 105.602 175.277 107.358 168.781C111.273 178.407 118.331 216.486 118.405 216.886C118.423 216.985 118.476 217.075 118.553 217.14C118.63 217.205 118.727 217.241 118.827 217.243ZM125.613 216.189L119.189 216.355C118.371 211.949 111.328 174.456 107.637 167.29C107.597 167.211 107.534 167.147 107.456 167.105C107.379 167.064 107.291 167.046 107.203 167.055C107.116 167.064 107.033 167.1 106.966 167.156C106.899 167.213 106.851 167.289 106.827 167.374C106.405 168.915 96.5713 204.836 95.9567 216.08C94.8907 216.167 91.8229 216.368 90.266 215.948C89.454 207.33 89.0105 198.629 88.95 190.081C88.8183 171.629 90.4411 162.738 91.6755 157.655C92.4178 154.596 93.314 151.546 94.3393 148.586L96.6674 141.941L120.55 146.115C121.132 149.955 126.838 188.294 125.613 216.193V216.189Z" fill="black"/>
<path d="M107.63 167.068C107.727 167.068 107.821 167.035 107.897 166.976C107.973 166.917 108.028 166.834 108.052 166.74L109.095 162.708L111.581 162.195C111.691 162.168 111.787 162.1 111.848 162.004C111.909 161.908 111.93 161.792 111.907 161.681C111.884 161.57 111.819 161.472 111.725 161.408C111.631 161.344 111.516 161.319 111.404 161.338L108.651 161.907C108.571 161.924 108.498 161.963 108.439 162.02C108.38 162.076 108.338 162.147 108.317 162.226L107.207 166.521C107.18 166.633 107.197 166.751 107.256 166.849C107.315 166.948 107.41 167.019 107.521 167.048C107.556 167.059 107.593 167.066 107.63 167.068Z" fill="black"/>
<path d="M120.297 109.191C116.086 108.715 107.165 107.874 100.893 108.391C98.9651 108.549 97.1344 109.305 95.6563 110.554C91.2014 114.32 81.548 123.755 81.4217 134.921L91.3106 133.485C91.3106 133.485 87.8191 146.006 88.0573 148.018C88.2955 150.031 94.4152 153.454 102.071 150.653C109.726 147.851 120.743 148.186 124.312 150.653L124.66 135.201H139.697C139.697 135.201 134.723 119.001 125.072 111.176C123.702 110.072 122.045 109.383 120.297 109.191Z" fill="black"/>
<path d="M139.697 135.202C139.697 135.202 140.882 140.589 135.524 142.206C130.166 143.824 125.092 134.074 125.092 134.074L128.816 131.914L139.697 135.202Z" fill="white"/>
<path d="M134.295 142.826C134.755 142.826 135.211 142.758 135.651 142.625C141.323 140.912 140.137 135.167 140.126 135.109C140.109 135.033 140.072 134.963 140.019 134.905C139.966 134.848 139.899 134.806 139.824 134.784L128.943 131.491C128.886 131.474 128.826 131.469 128.766 131.476C128.707 131.483 128.65 131.502 128.598 131.532L124.872 133.692C124.775 133.749 124.703 133.841 124.672 133.949C124.641 134.057 124.653 134.173 124.705 134.273C124.901 134.656 129.225 142.826 134.295 142.826ZM139.315 135.542C139.464 136.579 139.718 140.483 135.398 141.788C131.021 143.105 126.658 135.961 125.68 134.238L128.872 132.394L139.315 135.542Z" fill="black"/>
<path d="M104.992 147.477H131.292C131.616 147.477 131.93 147.369 132.185 147.17C132.44 146.97 132.621 146.691 132.699 146.376L138.008 124.952C138.061 124.738 138.065 124.515 138.019 124.299C137.973 124.084 137.879 123.882 137.743 123.708C137.608 123.535 137.434 123.395 137.236 123.298C137.038 123.202 136.821 123.152 136.601 123.152H110.301C109.977 123.152 109.662 123.26 109.406 123.459C109.151 123.659 108.97 123.939 108.892 124.253L103.583 145.675C103.53 145.889 103.525 146.113 103.571 146.329C103.617 146.545 103.711 146.747 103.847 146.921C103.983 147.095 104.157 147.235 104.355 147.332C104.553 147.428 104.771 147.478 104.992 147.477Z" fill="#407FFF"/>
<path d="M104.991 147.915H131.291C131.712 147.916 132.122 147.775 132.454 147.516C132.786 147.256 133.021 146.892 133.121 146.482L138.431 125.058C138.5 124.78 138.505 124.489 138.445 124.209C138.385 123.929 138.263 123.666 138.086 123.44C137.91 123.214 137.684 123.031 137.427 122.906C137.169 122.78 136.886 122.715 136.6 122.715H110.3C109.879 122.715 109.47 122.856 109.139 123.116C108.807 123.376 108.572 123.739 108.472 124.148L103.162 145.572C103.093 145.851 103.088 146.141 103.148 146.422C103.208 146.702 103.331 146.965 103.507 147.191C103.684 147.417 103.91 147.6 104.167 147.725C104.425 147.851 104.708 147.916 104.994 147.915H104.991ZM136.6 123.588C136.754 123.588 136.905 123.624 137.044 123.691C137.182 123.759 137.303 123.857 137.397 123.978C137.492 124.1 137.558 124.241 137.59 124.391C137.622 124.542 137.62 124.698 137.583 124.847L132.274 146.272C132.22 146.492 132.094 146.687 131.915 146.827C131.737 146.966 131.517 147.042 131.291 147.042H104.991C104.837 147.042 104.685 147.007 104.546 146.939C104.408 146.872 104.287 146.774 104.192 146.653C104.097 146.531 104.031 146.39 103.999 146.239C103.967 146.089 103.969 145.933 104.006 145.783L109.315 124.359C109.37 124.139 109.496 123.943 109.675 123.803C109.853 123.664 110.073 123.588 110.3 123.588H136.6Z" fill="black"/>
<path d="M136.055 133.802L135.283 135.945L128.959 132.932C128.959 132.932 125.482 135.945 133.911 139.806C137.425 141.415 136.055 133.802 136.055 133.802Z" fill="white"/>
<path d="M134.793 140.464C135.141 140.47 135.479 140.357 135.754 140.145C137.365 138.894 136.585 134.25 136.49 133.724C136.473 133.629 136.425 133.543 136.354 133.478C136.283 133.413 136.192 133.374 136.097 133.366C136.001 133.358 135.905 133.381 135.824 133.433C135.743 133.485 135.682 133.562 135.649 133.653L135.04 135.343L129.151 132.536C129.075 132.5 128.989 132.487 128.905 132.498C128.821 132.51 128.742 132.545 128.678 132.601C128.36 132.901 128.119 133.272 127.974 133.685C127.829 134.097 127.784 134.538 127.845 134.971C128.108 136.773 130.082 138.528 133.733 140.206C134.063 140.367 134.425 140.455 134.793 140.464ZM135.846 135.676C135.956 137.257 135.857 138.958 135.216 139.455C135.122 139.527 134.837 139.749 134.095 139.409C129.92 137.496 128.862 135.879 128.708 134.858C128.671 134.614 128.684 134.364 128.745 134.125C128.807 133.886 128.916 133.661 129.066 133.465L135.097 136.34C135.153 136.366 135.213 136.38 135.274 136.382C135.335 136.384 135.395 136.372 135.452 136.349C135.508 136.326 135.559 136.291 135.601 136.247C135.643 136.202 135.676 136.15 135.696 136.092L135.846 135.676Z" fill="black"/>
<path d="M98.858 122.89C98.858 122.89 87.0357 129.531 84.5971 131.617C82.1584 133.703 79.5131 135.285 82.9507 139.845C86.3882 144.405 101.045 126.147 101.045 126.147C101.045 126.147 103.86 126.613 104.843 122.775C104.843 122.775 109.597 122.946 109.77 121.458L103.065 120.258C102.639 120.182 102.2 120.211 101.787 120.344C101.374 120.476 101 120.708 100.697 121.018L98.858 122.89Z" fill="white"/>
<path d="M84.4725 141.018C89.3643 141.018 99.8349 128.331 101.244 126.594C102.018 126.606 104.225 126.36 105.173 123.22C106.656 123.242 110.017 123.116 110.204 121.507C110.217 121.397 110.187 121.286 110.121 121.197C110.054 121.107 109.957 121.047 109.848 121.027L103.136 119.827C102.638 119.737 102.125 119.77 101.644 119.925C101.162 120.079 100.725 120.349 100.372 120.712L98.5781 122.556C97.595 123.108 86.6848 129.263 84.3014 131.3C84.1145 131.461 83.9263 131.618 83.7394 131.774C81.4916 133.647 79.1687 135.585 82.5905 140.125C82.8008 140.411 83.0766 140.642 83.3946 140.8C83.7126 140.957 84.0637 141.036 84.4185 141.03L84.4725 141.018ZM101.048 125.708C100.983 125.708 100.918 125.722 100.858 125.751C100.799 125.779 100.746 125.82 100.705 125.871C97.5121 129.85 88.3917 140.143 84.4764 140.143H84.4435C84.2221 140.15 84.0023 140.103 83.8031 140.006C83.604 139.909 83.4313 139.765 83.2998 139.586C80.3795 135.711 82.0285 134.336 84.3106 132.433C84.5001 132.275 84.6909 132.116 84.8804 131.954C87.2599 129.92 98.9545 123.341 99.0716 123.275C99.1081 123.254 99.1413 123.229 99.1703 123.199L101.013 121.315C101.265 121.057 101.577 120.864 101.921 120.753C102.265 120.642 102.631 120.617 102.987 120.68L109.024 121.762C108.308 122.176 106.494 122.395 104.858 122.337C104.759 122.334 104.662 122.365 104.582 122.425C104.503 122.484 104.446 122.569 104.42 122.665C103.554 126.045 101.212 125.729 101.113 125.713C101.091 125.71 101.07 125.708 101.048 125.708Z" fill="black"/>
<path d="M115.54 101.469C115.755 101.839 115.313 102.558 115.309 102.557C115.305 102.556 115.522 100.449 116.693 99.9226C117.372 99.6144 117.724 100.128 118.736 99.9898C119.811 99.841 120.994 99.0441 121.437 97.8824C121.973 96.4757 121.201 95.1335 120.714 94.288C120.227 93.4424 119.612 92.5098 118.543 92.1055C117.148 91.5786 116.569 92.3873 114.969 91.8908C113.67 91.4864 113.766 90.8595 112.611 90.5315C111.647 90.2562 108.87 90.413 108.249 91.8908C107.854 92.8273 108.706 93.3976 108.282 94.7885C108.027 95.6222 107.624 95.7249 107.336 96.369C106.612 97.9654 107.519 100.771 109.247 101.71C111.591 102.976 115.034 100.592 115.54 101.469Z" fill="black"/>
<path d="M114.535 102.605L115.081 107.083C115.133 107.499 115.308 107.89 115.585 108.205C115.861 108.52 116.226 108.745 116.631 108.85L118.932 109.454L111.835 114.854L103.86 108.795L106.72 108.156C107.122 108.067 107.488 107.86 107.774 107.563C108.059 107.266 108.25 106.891 108.323 106.485L109.507 99.8848L114.535 102.605Z" fill="white"/>
<path d="M111.836 115.296C111.931 115.297 112.024 115.265 112.099 115.207L119.196 109.799C119.261 109.749 119.311 109.682 119.341 109.606C119.37 109.529 119.377 109.446 119.361 109.365C119.345 109.284 119.306 109.21 119.25 109.151C119.193 109.091 119.121 109.049 119.042 109.028L116.74 108.428C116.418 108.345 116.128 108.167 115.91 107.916C115.691 107.666 115.553 107.355 115.513 107.025L114.968 102.547C114.96 102.477 114.935 102.411 114.895 102.353C114.856 102.295 114.804 102.248 114.742 102.215L109.719 99.5119C109.658 99.4789 109.59 99.4608 109.521 99.4591C109.452 99.4574 109.384 99.4722 109.322 99.5021C109.259 99.5321 109.205 99.5765 109.163 99.6315C109.122 99.6866 109.094 99.7508 109.082 99.8188L107.897 106.419C107.839 106.739 107.687 107.035 107.462 107.269C107.236 107.503 106.946 107.666 106.629 107.736L103.769 108.376C103.687 108.394 103.613 108.435 103.554 108.494C103.495 108.553 103.454 108.628 103.436 108.709C103.418 108.791 103.424 108.876 103.454 108.954C103.483 109.032 103.534 109.101 103.6 109.151L111.574 115.209C111.65 115.266 111.742 115.297 111.836 115.296ZM117.948 109.647L111.828 114.31L104.869 109.026L106.81 108.592C107.296 108.484 107.739 108.235 108.084 107.875C108.429 107.516 108.66 107.062 108.747 106.572L109.829 100.564L114.131 102.875L114.65 107.13C114.709 107.635 114.919 108.11 115.254 108.492C115.588 108.875 116.03 109.147 116.521 109.273L117.948 109.647Z" fill="black"/>
<path d="M110.084 100.804C110.084 100.804 108.316 100.138 108.981 98.6759C109.645 97.2138 110.725 98.2939 110.725 98.2939C110.725 98.2939 111.728 94.6929 113.837 96.1127C115.1 96.9647 116.486 97.6177 117.947 98.0489C117.947 98.0489 117.204 101.672 115.869 104.083C115.065 105.532 114.045 106.55 112.842 106.058C109.552 104.721 110.078 100.802 110.078 100.802L110.084 100.804Z" fill="white"/>
<path d="M113.448 106.622C114.255 106.622 115.248 106.106 116.25 104.295C117.601 101.853 118.342 98.2876 118.374 98.1374C118.396 98.0276 118.376 97.9134 118.317 97.8183C118.257 97.7232 118.164 97.6545 118.055 97.6264C116.644 97.2071 115.304 96.5766 114.081 95.7561C113.32 95.2437 112.689 95.3109 112.292 95.4571C111.345 95.8061 110.771 96.923 110.496 97.6198C110.242 97.4946 109.955 97.4518 109.676 97.4973C109.215 97.5816 108.847 97.9188 108.584 98.501C108.472 98.7245 108.409 98.969 108.398 99.2186C108.387 99.4683 108.429 99.7174 108.521 99.9498C108.763 100.535 109.288 100.897 109.626 101.08C109.581 102.105 109.698 105.263 112.678 106.48C112.923 106.576 113.185 106.625 113.448 106.622ZM117.43 98.3521C117.2 99.3413 116.52 102.003 115.486 103.871C114.649 105.384 113.815 105.978 113.007 105.657C110.064 104.461 110.506 100.898 110.517 100.863C110.53 100.765 110.51 100.665 110.459 100.58C110.409 100.496 110.331 100.43 110.239 100.395C110.045 100.32 109.501 100.031 109.326 99.6047C109.282 99.4833 109.264 99.3539 109.273 99.225C109.282 99.0962 109.318 98.9706 109.379 98.8566C109.473 98.6471 109.63 98.389 109.831 98.3521C110.064 98.31 110.358 98.5431 110.416 98.6024C110.47 98.6562 110.537 98.695 110.61 98.7149C110.684 98.7348 110.761 98.7351 110.835 98.7158C110.909 98.6965 110.976 98.6582 111.03 98.6048C111.085 98.5514 111.124 98.4848 111.145 98.4114C111.286 97.9135 111.819 96.5569 112.592 96.271C112.895 96.1604 113.222 96.2276 113.591 96.4765C114.78 97.2728 116.072 97.9038 117.43 98.3521Z" fill="black"/>
<path d="M50.4041 64.3946C50.4903 64.3941 50.5745 64.3682 50.6461 64.32C50.7176 64.2719 50.7734 64.2037 50.8064 64.1239C50.8395 64.0442 50.8482 63.9565 50.8317 63.8718C50.8151 63.7871 50.774 63.7092 50.7134 63.6478L29.6984 42.6172C28.5055 41.426 26.8892 40.757 25.204 40.757C23.5189 40.757 21.9025 41.426 20.7096 42.6172C19.6806 43.6444 18.2865 44.2212 16.8331 44.2212C15.3798 44.2212 13.9857 43.6444 12.9567 42.6172L5.95518 35.61C5.87307 35.5291 5.76236 35.484 5.64716 35.4844C5.53195 35.4848 5.42157 35.5307 5.34002 35.6121C5.25847 35.6936 5.21236 35.8039 5.21172 35.9192C5.21109 36.0345 5.25597 36.1454 5.33661 36.2278L12.3394 43.2349C13.5323 44.4261 15.1487 45.0951 16.8338 45.0951C18.5189 45.0951 20.1353 44.4261 21.3282 43.2349C22.3572 42.2077 23.7513 41.6309 25.2047 41.6309C26.6581 41.6309 28.0521 42.2077 29.0812 43.2349L50.0948 64.2655C50.1354 64.3063 50.1835 64.3388 50.2366 64.3609C50.2897 64.3831 50.3466 64.3945 50.4041 64.3946Z" fill="white"/>
<path d="M71.2863 62.0379C71.3724 62.0371 71.4564 62.011 71.5278 61.9627C71.5991 61.9145 71.6547 61.8463 71.6876 61.7666C71.7204 61.6869 71.7291 61.5993 71.7125 61.5148C71.6959 61.4302 71.6548 61.3524 71.5942 61.291L33.5888 23.2523C33.549 23.2086 33.5008 23.1734 33.447 23.1488C33.3932 23.1243 33.335 23.1109 33.2759 23.1095C33.2168 23.1081 33.1581 23.1187 33.1032 23.1407C33.0483 23.1627 32.9985 23.1956 32.9567 23.2375C32.9149 23.2793 32.882 23.3292 32.86 23.3841C32.8381 23.439 32.8274 23.4978 32.8288 23.5569C32.8302 23.6161 32.8436 23.6743 32.8681 23.7281C32.8926 23.782 32.9278 23.8302 32.9716 23.8701L70.977 61.9062C71.0173 61.9475 71.0654 61.9804 71.1185 62.003C71.1716 62.0256 71.2286 62.0374 71.2863 62.0379Z" fill="white"/>
<path d="M112.701 32.4029C112.787 32.4032 112.871 32.3784 112.943 32.3316C113.014 32.2848 113.071 32.218 113.105 32.1395C113.621 30.8922 113.653 29.8767 113.201 29.1193C112.871 28.5674 112.422 28.3791 112.026 28.2131C111.723 28.0814 111.463 27.9787 111.236 27.7087C110.814 27.1963 110.943 26.5549 111.092 25.812C111.247 25.0415 111.422 24.1682 110.947 23.3384C110.369 22.3282 109.289 22.1886 108.337 22.0661C107.491 21.9555 106.691 21.8527 106.221 21.2139C105.683 20.4842 105.922 19.5135 106.175 18.4875C106.452 17.36 106.767 16.0824 105.969 15.026C105.302 14.1409 104.298 13.9723 103.412 13.8406C102.658 13.7181 102.008 13.6141 101.701 13.107C101.257 12.372 101.63 11.0312 102.779 9.23066C102.813 9.18236 102.837 9.12763 102.85 9.06979C102.862 9.01195 102.863 8.9522 102.851 8.89416C102.84 8.83611 102.817 8.78098 102.784 8.7321C102.75 8.68322 102.707 8.6416 102.658 8.60976C102.608 8.57793 102.552 8.55653 102.494 8.54688C102.436 8.53723 102.376 8.53951 102.318 8.5536C102.261 8.56768 102.207 8.59328 102.16 8.62883C102.113 8.66439 102.073 8.70916 102.044 8.76045C100.664 10.9205 100.308 12.4906 100.955 13.5601C101.471 14.4123 102.428 14.5664 103.273 14.7033C104.063 14.8351 104.817 14.9523 105.273 15.5568C105.819 16.2813 105.58 17.2533 105.327 18.282C105.05 19.4042 104.736 20.6765 105.517 21.7355C106.209 22.6759 107.28 22.8142 108.225 22.9367C109.085 23.0474 109.827 23.1435 110.189 23.777C110.501 24.321 110.372 24.9625 110.235 25.6434C110.066 26.4837 109.876 27.4347 110.563 28.2685C110.864 28.6141 111.25 28.8744 111.684 29.0232C112.021 29.1641 112.264 29.2668 112.446 29.5724C112.749 30.0782 112.697 30.8316 112.293 31.8115C112.271 31.8645 112.26 31.9212 112.26 31.9785C112.26 32.0358 112.271 32.0926 112.293 32.1456C112.315 32.1986 112.347 32.2467 112.387 32.2872C112.428 32.3278 112.476 32.3599 112.529 32.3819C112.584 32.4001 112.643 32.4073 112.701 32.4029Z" fill="white"/>
<path d="M89.9774 4.24021C90.0831 4.24013 90.1887 4.2322 90.2932 4.2165C90.8319 4.13495 91.3179 3.84767 91.6494 3.41501C91.9808 2.98234 92.1318 2.43796 92.0707 1.89622C92.0095 1.35448 91.741 0.857534 91.3214 0.50978C90.9019 0.162025 90.364 -0.00947763 89.8208 0.031297C89.2776 0.0720716 88.7713 0.32195 88.4082 0.728444C88.0452 1.13494 87.8537 1.66641 87.874 2.21122C87.8943 2.75603 88.1247 3.27178 88.5169 3.65013C88.9092 4.02848 89.4326 4.23998 89.9774 4.24021ZM89.9774 0.876261C90.2915 0.876298 90.5941 0.995335 90.8241 1.20945C91.0542 1.42356 91.1948 1.71689 91.2176 2.03049C91.2405 2.34408 91.1439 2.6547 90.9472 2.89994C90.7506 3.14517 90.4685 3.30684 90.1577 3.35247C89.8313 3.40102 89.4991 3.31784 89.234 3.12122C88.9689 2.9246 88.7927 2.63065 88.7442 2.30403C88.6957 1.97741 88.7788 1.64488 88.9753 1.37959C89.1717 1.1143 89.4655 0.937988 89.7918 0.889432C89.8554 0.88013 89.9197 0.875726 89.984 0.876261H89.9774Z" fill="white"/>
<path d="M44.4675 95.8783C44.5254 95.8785 44.5827 95.8669 44.6359 95.8441C44.6889 95.822 44.737 95.7897 44.7775 95.7491C44.8179 95.7084 44.8499 95.6601 44.8717 95.607C44.8935 95.5539 44.9046 95.497 44.9043 95.4396C44.904 95.3821 44.8924 95.3254 44.8702 95.2724C44.3517 94.0278 43.6555 93.2875 42.8013 93.0742C42.1762 92.9174 41.7261 93.1044 41.3287 93.2678C41.0273 93.3929 40.7654 93.5009 40.4193 93.468C39.7612 93.4061 39.394 92.8621 38.9716 92.2325C38.5346 91.5739 38.0411 90.8377 37.1185 90.5901C35.9959 90.2884 35.1339 90.9536 34.3745 91.5423C33.6994 92.0692 33.0585 92.5592 32.2781 92.4419C31.3818 92.3102 30.8646 91.4541 30.3158 90.5505C29.7143 89.5587 29.0313 88.4339 27.7205 88.2548C26.6229 88.102 25.8004 88.7013 25.0739 89.2281C24.4567 89.676 23.9223 90.0645 23.3472 89.9236C22.5128 89.7207 21.8271 88.5103 21.3639 86.424C21.3365 86.3132 21.2668 86.2175 21.1699 86.1574C21.0729 86.0972 20.9563 86.0774 20.845 86.1022C20.7336 86.127 20.6364 86.1943 20.574 86.2899C20.5116 86.3854 20.489 86.5016 20.5111 86.6136C21.0678 89.1162 21.9272 90.4768 23.1432 90.7731C24.1105 91.0089 24.8962 90.4386 25.5885 89.9354C26.2465 89.4626 26.8558 89.0134 27.6047 89.1201C28.5036 89.2439 29.0221 90.0988 29.5788 91.0049C30.1776 91.9928 30.858 93.1123 32.1583 93.3073C33.3125 93.4785 34.1653 92.8173 34.922 92.2338C35.6077 91.707 36.1999 91.2447 36.904 91.4343C37.5094 91.5963 37.874 92.1416 38.2583 92.7172C38.7334 93.4298 39.273 94.2372 40.3482 94.3386C40.9115 94.3926 41.3339 94.2161 41.6735 94.0752C42.013 93.9342 42.2539 93.8341 42.5947 93.9211C43.1672 94.0646 43.6634 94.631 44.07 95.6083C44.1027 95.6873 44.1577 95.7549 44.2284 95.8029C44.299 95.8509 44.3821 95.8771 44.4675 95.8783Z" fill="white"/>
<path d="M28.0266 15.6509C28.0839 15.6509 28.1407 15.6396 28.1936 15.6176C28.2466 15.5956 28.2946 15.5634 28.3351 15.5228C28.3756 15.4822 28.4076 15.4339 28.4294 15.3809C28.4513 15.3279 28.4624 15.271 28.4622 15.2137V12.9535C28.4655 12.8941 28.4566 12.8347 28.4362 12.7789C28.4157 12.7231 28.3841 12.672 28.3433 12.6289C28.3024 12.5857 28.2532 12.5513 28.1987 12.5278C28.1441 12.5043 28.0853 12.4922 28.0259 12.4922C27.9665 12.4922 27.9078 12.5043 27.8532 12.5278C27.7987 12.5513 27.7495 12.5857 27.7086 12.6289C27.6678 12.672 27.6362 12.7231 27.6157 12.7789C27.5953 12.8347 27.5864 12.8941 27.5897 12.9535V15.2137C27.5895 15.2711 27.6007 15.3281 27.6226 15.3812C27.6445 15.4343 27.6766 15.4826 27.7173 15.5233C27.7579 15.5639 27.8061 15.5961 27.8592 15.618C27.9123 15.6399 27.9692 15.6511 28.0266 15.6509Z" fill="white"/>
<path d="M28.0266 20.9166C28.1423 20.9162 28.2531 20.87 28.3347 20.788C28.4164 20.7061 28.4622 20.595 28.4622 20.4793V18.2191C28.4655 18.1597 28.4566 18.1003 28.4362 18.0445C28.4157 17.9887 28.3841 17.9377 28.3433 17.8945C28.3024 17.8513 28.2532 17.8169 28.1987 17.7934C28.1441 17.7699 28.0853 17.7578 28.0259 17.7578C27.9665 17.7578 27.9078 17.7699 27.8532 17.7934C27.7987 17.8169 27.7495 17.8513 27.7086 17.8945C27.6678 17.9377 27.6362 17.9887 27.6157 18.0445C27.5953 18.1003 27.5864 18.1597 27.5897 18.2191V20.4793C27.5897 20.5367 27.601 20.5936 27.6229 20.6466C27.6449 20.6997 27.6771 20.7479 27.7177 20.7885C27.7582 20.8291 27.8064 20.8613 27.8594 20.8833C27.9124 20.9053 27.9692 20.9166 28.0266 20.9166Z" fill="white"/>
<path d="M29.526 17.1539H31.7857C31.9016 17.1539 32.0127 17.1078 32.0947 17.0258C32.1766 16.9438 32.2227 16.8326 32.2227 16.7166C32.2227 16.6006 32.1766 16.4894 32.0947 16.4074C32.0127 16.3254 31.9016 16.2793 31.7857 16.2793H29.526C29.4101 16.2793 29.299 16.3254 29.2171 16.4074C29.1351 16.4894 29.0891 16.6006 29.0891 16.7166C29.0891 16.8326 29.1351 16.9438 29.2171 17.0258C29.299 17.1078 29.4101 17.1539 29.526 17.1539Z" fill="white"/>
<path d="M24.2656 17.1539H26.524C26.6399 17.1539 26.751 17.1078 26.833 17.0258C26.9149 16.9438 26.9609 16.8326 26.9609 16.7166C26.9609 16.6006 26.9149 16.4894 26.833 16.4074C26.751 16.3254 26.6399 16.2793 26.524 16.2793H24.2656C24.1497 16.2793 24.0386 16.3254 23.9567 16.4074C23.8747 16.4894 23.8287 16.6006 23.8287 16.7166C23.8287 16.8326 23.8747 16.9438 23.9567 17.0258C24.0386 17.1078 24.1497 17.1539 24.2656 17.1539Z" fill="white"/>
<path d="M228.196 68.3066C228.311 68.3056 228.421 68.2593 228.502 68.1776C228.583 68.096 228.629 67.9857 228.629 67.8707V65.6092C228.629 65.4932 228.583 65.382 228.501 65.3C228.419 65.2179 228.308 65.1719 228.192 65.1719C228.076 65.1719 227.965 65.2179 227.883 65.3C227.801 65.382 227.755 65.4932 227.755 65.6092V67.8707C227.755 67.9283 227.767 67.9854 227.789 68.0385C227.811 68.0917 227.844 68.1399 227.885 68.1804C227.926 68.221 227.974 68.253 228.028 68.2746C228.081 68.2963 228.138 68.3072 228.196 68.3066Z" fill="white"/>
<path d="M228.196 73.5723C228.311 73.5712 228.421 73.5247 228.502 73.4428C228.583 73.3609 228.629 73.2503 228.629 73.135V70.8748C228.629 70.7588 228.583 70.6476 228.501 70.5656C228.419 70.4836 228.308 70.4375 228.192 70.4375C228.076 70.4375 227.965 70.4836 227.883 70.5656C227.801 70.6476 227.755 70.7588 227.755 70.8748V73.135C227.755 73.1927 227.766 73.2499 227.789 73.3032C227.811 73.3566 227.843 73.4049 227.884 73.4456C227.925 73.4863 227.974 73.5184 228.027 73.5401C228.081 73.5619 228.138 73.5728 228.196 73.5723Z" fill="white"/>
<path d="M229.699 69.8095H231.957C232.016 69.8127 232.076 69.8038 232.131 69.7834C232.187 69.7629 232.238 69.7313 232.281 69.6904C232.325 69.6495 232.359 69.6003 232.382 69.5457C232.406 69.4911 232.418 69.4323 232.418 69.3728C232.418 69.3134 232.406 69.2546 232.382 69.2C232.359 69.1454 232.325 69.0961 232.281 69.0553C232.238 69.0144 232.187 68.9828 232.131 68.9623C232.076 68.9418 232.016 68.9329 231.957 68.9362H229.699C229.639 68.9329 229.58 68.9418 229.524 68.9623C229.468 68.9828 229.417 69.0144 229.374 69.0553C229.331 69.0961 229.297 69.1454 229.273 69.2C229.25 69.2546 229.238 69.3134 229.238 69.3728C229.238 69.4323 229.25 69.4911 229.273 69.5457C229.297 69.6003 229.331 69.6495 229.374 69.6904C229.417 69.7313 229.468 69.7629 229.524 69.7834C229.58 69.8038 229.639 69.8127 229.699 69.8095Z" fill="white"/>
<path d="M224.437 69.8095H226.695C226.755 69.8127 226.814 69.8038 226.87 69.7834C226.926 69.7629 226.977 69.7313 227.02 69.6904C227.063 69.6495 227.097 69.6003 227.121 69.5457C227.144 69.4911 227.156 69.4323 227.156 69.3728C227.156 69.3134 227.144 69.2546 227.121 69.2C227.097 69.1454 227.063 69.0961 227.02 69.0553C226.977 69.0144 226.926 68.9828 226.87 68.9623C226.814 68.9418 226.755 68.9329 226.695 68.9362H224.437C224.378 68.9329 224.318 68.9418 224.263 68.9623C224.207 68.9828 224.156 69.0144 224.113 69.0553C224.069 69.0961 224.035 69.1454 224.012 69.2C223.988 69.2546 223.976 69.3134 223.976 69.3728C223.976 69.4323 223.988 69.4911 224.012 69.5457C224.035 69.6003 224.069 69.6495 224.113 69.6904C224.156 69.7313 224.207 69.7629 224.263 69.7834C224.318 69.8038 224.378 69.8127 224.437 69.8095Z" fill="white"/>
<path d="M17.7596 190.178C17.8174 190.177 17.8746 190.166 17.928 190.144L69.9128 168.504C70.018 168.459 70.1011 168.373 70.144 168.267C70.187 168.16 70.1863 168.041 70.1423 167.935C70.0982 167.829 70.0142 167.745 69.9085 167.7C69.8028 167.656 69.6838 167.655 69.5772 167.697L17.5924 189.336C17.4988 189.375 17.4215 189.445 17.3737 189.534C17.3258 189.623 17.3105 189.726 17.3302 189.826C17.35 189.925 17.4036 190.015 17.4819 190.079C17.5602 190.143 17.6583 190.178 17.7596 190.178Z" fill="white"/>
<path d="M43.7507 192.799C43.829 192.8 43.906 192.779 43.9732 192.738L60.1608 183.123C60.2559 183.062 60.3236 182.966 60.3496 182.856C60.3756 182.746 60.358 182.63 60.3004 182.533C60.2428 182.436 60.1497 182.364 60.0407 182.334C59.9318 182.304 59.8154 182.317 59.716 182.371L43.5283 191.986C43.4464 192.035 43.3827 192.11 43.3471 192.199C43.3114 192.287 43.3058 192.385 43.331 192.477C43.3562 192.569 43.4109 192.651 43.4867 192.709C43.5625 192.767 43.6552 192.799 43.7507 192.799Z" fill="white"/>
<path d="M167.644 216.352C167.689 216.352 167.733 216.344 167.776 216.33C178.813 212.666 188.306 207.269 195.983 200.29C202.113 194.724 207.155 188.066 210.854 180.655C217.198 167.981 217.627 157.11 217.631 157.001C217.63 156.888 217.585 156.781 217.506 156.7C217.428 156.619 217.321 156.572 217.208 156.569C217.096 156.565 216.986 156.605 216.902 156.68C216.819 156.755 216.767 156.86 216.758 156.972C216.758 157.079 216.325 167.791 210.056 180.298C204.275 191.831 192.199 207.3 167.494 215.501C167.395 215.533 167.31 215.6 167.256 215.689C167.202 215.778 167.181 215.883 167.198 215.986C167.214 216.089 167.267 216.183 167.347 216.25C167.427 216.317 167.528 216.353 167.632 216.352H167.644Z" fill="white"/>
<path d="M161.4 223.872C161.416 223.873 161.432 223.873 161.447 223.872C176.94 222.179 188.044 215.815 194.631 210.773C201.776 205.304 205.309 200.153 205.344 200.104C205.405 200.008 205.426 199.892 205.403 199.781C205.38 199.669 205.315 199.571 205.221 199.507C205.127 199.443 205.011 199.419 204.899 199.438C204.787 199.458 204.688 199.521 204.621 199.613C204.587 199.663 201.114 204.719 194.071 210.104C187.577 215.068 176.628 221.336 161.353 223.012C161.238 223.019 161.131 223.071 161.054 223.157C160.978 223.243 160.938 223.356 160.945 223.471C160.951 223.585 161.002 223.693 161.088 223.77C161.173 223.847 161.285 223.888 161.4 223.882V223.872Z" fill="white"/>
<path d="M20.9398 78.6368C14.6642 78.6368 9.57685 73.5453 9.57685 67.2647C9.57685 60.984 14.6642 55.8926 20.9398 55.8926C27.2154 55.8926 32.3027 60.984 32.3027 67.2647C32.3027 73.5453 27.2154 78.6368 20.9398 78.6368Z" fill="white"/>
<path d="M20.941 79.0758C23.2748 79.0761 25.5564 78.3837 27.497 77.0862C29.4377 75.7887 30.9503 73.9445 31.8436 71.7866C32.7369 69.6287 32.9708 67.2542 32.5156 64.9633C32.0605 62.6725 30.9367 60.5681 29.2865 58.9164C27.6364 57.2647 25.5338 56.1398 23.2448 55.684C20.9558 55.2283 18.5832 55.4621 16.427 56.3558C14.2708 57.2496 12.4278 58.7633 11.1311 60.7053C9.8345 62.6474 9.14242 64.9307 9.14242 67.2664C9.1459 70.3972 10.39 73.3987 12.6019 75.6126C14.8138 77.8265 17.8128 79.072 20.941 79.0758ZM20.941 56.3316C23.1014 56.3316 25.2134 56.9728 27.0097 58.174C28.806 59.3753 30.2061 61.0826 31.0329 63.0802C31.8596 65.0778 32.076 67.2759 31.6545 69.3966C31.233 71.5172 30.1926 73.4651 28.665 74.994C27.1373 76.5229 25.191 77.5641 23.072 77.9859C20.9531 78.4077 18.7568 78.1912 16.7608 77.3638C14.7648 76.5364 13.0588 75.1352 11.8585 73.3374C10.6583 71.5396 10.0176 69.426 10.0176 67.2638C10.0214 64.3656 11.1735 61.5872 13.2212 59.5378C15.2689 57.4885 18.0451 56.3354 20.941 56.3316Z" fill="black"/>
<path d="M28.7223 123.302C23.9367 122.237 20.9201 117.49 21.9846 112.701C23.049 107.912 27.7914 104.892 32.577 105.958C37.3627 107.023 40.3793 111.769 39.3148 116.559C38.2504 121.348 33.5079 124.367 28.7223 123.302Z" fill="white"/>
<path d="M30.6706 123.971C32.2999 123.968 33.8998 123.537 35.3108 122.722C36.7217 121.907 37.8944 120.735 38.7117 119.325C39.529 117.914 39.9624 116.314 39.9687 114.683C39.9749 113.053 39.5538 111.449 38.7474 110.032C37.989 108.7 36.9143 107.576 35.6183 106.76C34.3223 105.943 32.8451 105.459 31.3174 105.35C29.7898 105.241 28.2589 105.511 26.8603 106.135C25.4617 106.76 24.2385 107.72 23.2992 108.93C22.3599 110.141 21.7333 111.565 21.475 113.076C21.2168 114.586 21.3347 116.138 21.8185 117.592C22.3022 119.046 23.1369 120.359 24.2484 121.413C25.36 122.467 26.7142 123.231 28.1912 123.637C28.999 123.859 29.8329 123.971 30.6706 123.971ZM30.6417 106.19C31.3998 106.19 32.1545 106.292 32.8856 106.493C33.9557 106.783 34.9576 107.283 35.8335 107.964C36.7093 108.644 37.4416 109.492 37.988 110.457C38.9037 112.069 39.2633 113.938 39.0112 115.775C38.7591 117.612 37.9095 119.315 36.5935 120.62C35.2775 121.926 33.5686 122.761 31.7309 122.997C29.8932 123.232 28.029 122.856 26.4266 121.925C24.8242 120.994 23.5728 119.561 22.8659 117.847C22.159 116.133 22.0359 114.234 22.5157 112.443C22.9955 110.652 24.0514 109.069 25.5202 107.938C26.989 106.808 28.7889 106.194 30.6417 106.19Z" fill="black"/>
<path d="M181.118 177.252C177.565 180.456 177.17 185.974 180.231 189.582C183.293 193.19 188.654 193.515 192.198 190.313C195.743 187.111 196.147 181.59 193.085 177.983C190.024 174.377 184.672 174.049 181.118 177.252Z" fill="white"/>
<path d="M186.551 193.23C188.818 193.225 191.001 192.374 192.674 190.843C196.504 187.388 196.933 181.41 193.629 177.516C192.657 176.362 191.409 175.472 190.001 174.93C188.593 174.388 187.071 174.212 185.576 174.417C185.462 174.433 185.358 174.494 185.289 174.586C185.219 174.678 185.188 174.794 185.204 174.909C185.219 175.023 185.28 175.127 185.371 175.197C185.463 175.268 185.579 175.299 185.693 175.284C187.043 175.098 188.417 175.257 189.689 175.747C190.96 176.236 192.087 177.04 192.965 178.083C195.965 181.619 195.573 187.052 192.091 190.2C191.273 190.95 190.312 191.526 189.265 191.894C188.219 192.263 187.109 192.415 186.003 192.343C184.92 192.272 183.863 191.983 182.895 191.492C181.927 191.001 181.069 190.32 180.371 189.488C177.371 185.951 177.763 180.518 181.245 177.377C181.29 177.339 181.328 177.293 181.354 177.24C181.381 177.188 181.397 177.131 181.402 177.072C181.406 177.013 181.398 176.954 181.379 176.898C181.36 176.843 181.33 176.791 181.291 176.748C181.251 176.704 181.203 176.668 181.15 176.644C181.097 176.619 181.039 176.605 180.98 176.603C180.921 176.601 180.863 176.611 180.808 176.633C180.753 176.654 180.703 176.686 180.661 176.727C176.831 180.182 176.402 186.161 179.705 190.054C180.478 190.975 181.43 191.73 182.502 192.273C183.574 192.817 184.745 193.137 185.945 193.215C186.146 193.223 186.349 193.23 186.551 193.23Z" fill="black"/>
<path d="M53.5674 52.6065C48.8323 49.3738 47.5973 42.9334 50.8089 38.2215C54.0206 33.5097 60.4627 32.3105 65.1978 35.5432C69.9329 38.7759 71.1679 45.2162 67.9563 49.9281C64.7446 54.64 58.3025 55.8391 53.5674 52.6065Z" fill="white"/>
<path d="M59.4307 54.8688C60.0612 54.8687 60.6905 54.8132 61.3113 54.7029C62.7042 54.4586 64.035 53.9407 65.2268 53.179C66.4187 52.4174 67.4481 51.4271 68.2556 50.2653C69.0631 49.1035 69.6328 47.7932 69.9317 46.4099C70.2307 45.0267 70.253 43.5979 69.9974 42.2059C69.4775 39.3876 67.8672 36.8884 65.5165 35.2515C63.1658 33.6146 60.2646 32.9723 57.4434 33.4641C56.0507 33.7088 54.7201 34.2269 53.5284 34.9886C52.3367 35.7503 51.3075 36.7406 50.5 37.9023C49.6926 39.064 49.1229 40.3742 48.8238 41.7574C48.5247 43.1405 48.5021 44.5692 48.7573 45.9611C49.219 48.4586 50.5386 50.716 52.4877 52.3427C54.4368 53.9694 56.8928 54.863 59.4307 54.8688ZM59.3293 34.1728C61.6629 34.1778 63.9212 34.9992 65.7134 36.4948C67.5056 37.9905 68.7189 40.0662 69.1433 42.3627C69.3778 43.6416 69.357 44.9544 69.082 46.2252C68.8071 47.4961 68.2834 48.6999 67.5412 49.7671C66.799 50.8344 65.853 51.744 64.7578 52.4435C63.6626 53.1431 62.4398 53.6186 61.16 53.8428C58.5667 54.293 55.9006 53.702 53.7397 52.198C51.5789 50.6939 50.0975 48.3981 49.6167 45.8083C49.3826 44.5294 49.4036 43.2167 49.6787 41.946C49.9538 40.6753 50.4776 39.4717 51.2197 38.4045C51.9618 37.3373 52.9077 36.4277 54.0027 35.728C55.0978 35.0284 56.3204 34.5527 57.6 34.3282C58.1709 34.2265 58.7495 34.1745 59.3293 34.1728Z" fill="black"/>
</g>
<defs>
<clipPath id="clip0_701_746">
<rect width="241" height="243" fill="white" transform="matrix(-1 0 0 1 241 0)"/>
</clipPath>
</defs>
</svg>
